<?xml version="1.0" encoding="UTF-8"?>
<svg version="1.1" xmlns="http://www.w3.org/2000/svg" width="571" height="571">
<path d="M0 0 C188.43 0 376.86 0 571 0 C571 188.43 571 376.86 571 571 C382.57 571 194.14 571 0 571 C0 382.57 0 194.14 0 0 Z " fill="#DDDDDD" transform="translate(0,0)"/>
<path d="M0 0 C9.26784513 7.01708274 14.9041668 16.3820763 16.75 27.875 C17.72733846 41.70809821 15.38513697 54.97745769 6.6875 66 C-0.71962654 74.05743102 -10.46351067 77.43716198 -21.125 78.125 C-33.26077233 77.69157956 -43.21589603 73.9842341 -51.6484375 64.9921875 C-60.79321363 52.90323954 -61.66548536 38.5086647 -60.25 23.875 C-59.13729694 19.47035801 -57.54356165 15.78419209 -55.25 11.875 C-54.86585938 11.19308594 -54.48171875 10.51117188 -54.0859375 9.80859375 C-48.97534464 1.76027914 -39.96510461 -3.48690502 -30.83203125 -5.71484375 C-19.89051489 -7.45290611 -9.35087094 -6.08795374 0 0 Z " fill="#D7D7D7" transform="translate(462.25,249.125)"/>
<path d="M0 0 C41.07894737 0 41.07894737 0 49 7 C54.08814111 14.49394695 55.75308542 20.99086702 55 30 C52.19994436 39.17796014 46.17237906 44.49896889 38 49 C38.845625 49.886875 39.69125 50.77375 40.5625 51.6875 C44.34089293 56.04787289 46.7941491 60.98383499 49.38671875 66.109375 C51.25206581 69.4596696 51.25206581 69.4596696 54 72 C56.04100238 72.57017808 56.04100238 72.57017808 58.1875 72.6875 C59.445625 72.790625 60.70375 72.89375 62 73 C62 76.3 62 79.6 62 83 C54.98454141 83.46425829 48.57500766 83.79213424 43 79 C38.90611338 73.80860336 35.9809605 67.96686314 32.9375 62.125 C30.48315894 57.64454927 28.56534766 54.57319595 24 52 C19.71 51.34 15.42 50.68 11 50 C11 60.56 11 71.12 11 82 C7.37 82 3.74 82 0 82 C0 54.94 0 27.88 0 0 Z " fill="#191919" transform="translate(327,244)"/>
<path d="M0 0 C41.71794872 0 41.71794872 0 51.0625 7.4375 C58.04427086 16.67145501 59.23902065 24.66990385 58 36 C55.69643659 44.05254278 51.24595055 48.13398338 44.5 52.6875 C37.55166637 56.33537515 31.30869264 56.24174832 23.625 56.125 C19.78875 56.08375 15.9525 56.0425 12 56 C12 64.58 12 73.16 12 82 C8.04 82 4.08 82 0 82 C0 54.94 0 27.88 0 0 Z " fill="#1A1A1A" transform="translate(92,244)"/>
<path d="M0 0 C9.26784513 7.01708274 14.9041668 16.3820763 16.75 27.875 C17.72733846 41.70809821 15.38513697 54.97745769 6.6875 66 C-0.71962654 74.05743102 -10.46351067 77.43716198 -21.125 78.125 C-33.26077233 77.69157956 -43.21589603 73.9842341 -51.6484375 64.9921875 C-60.79321363 52.90323954 -61.66548536 38.5086647 -60.25 23.875 C-59.13729694 19.47035801 -57.54356165 15.78419209 -55.25 11.875 C-54.86585938 11.19308594 -54.48171875 10.51117188 -54.0859375 9.80859375 C-48.97534464 1.76027914 -39.96510461 -3.48690502 -30.83203125 -5.71484375 C-19.89051489 -7.45290611 -9.35087094 -6.08795374 0 0 Z M-43.84765625 14.82421875 C-49.66086103 23.32542351 -49.97820246 32.87013136 -49.25 42.875 C-47.6193217 51.55810229 -44.03554965 58.16403028 -37.25 63.875 C-31.04309692 68.06977516 -24.5935974 68.87969527 -17.25 67.875 C-9.19219816 65.88701677 -3.41964413 61.87105493 1.03125 54.85546875 C5.8897268 45.78052816 6.53780496 32.99707083 4.03125 23.01171875 C3.09131755 20.81727968 2.03448915 18.88439887 0.75 16.875 C0.41097656 16.24335938 0.07195312 15.61171875 -0.27734375 14.9609375 C-3.84256111 8.99776256 -9.76099269 6.22951671 -16.26953125 4.265625 C-27.64292021 2.02235302 -36.66092963 5.84503796 -43.84765625 14.82421875 Z " fill="#141414" transform="translate(462.25,249.125)"/>
<path d="M0 0 C16.5 0 33 0 50 0 C50 2.97 50 5.94 50 9 C37.13 9 24.26 9 11 9 C11 17.58 11 26.16 11 35 C22.55 35 34.1 35 46 35 C46 37.97 46 40.94 46 44 C34.45 44 22.9 44 11 44 C11 53.57 11 63.14 11 73 C23.87 73 36.74 73 50 73 C50 75.97 50 78.94 50 82 C33.5 82 17 82 0 82 C0 54.94 0 27.88 0 0 Z " fill="#141414" transform="translate(187,244)"/>
<path d="M0 0 C20.79 0 41.58 0 63 0 C63 2.97 63 5.94 63 9 C54.42 9 45.84 9 37 9 C37 33.09 37 57.18 37 82 C33.37 82 29.74 82 26 82 C26 57.91 26 33.82 26 9 C17.42 9 8.84 9 0 9 C0 6.03 0 3.06 0 0 Z " fill="#161616" transform="translate(251,244)"/>
<path d="M0 0 C0.66 0.33 1.32 0.66 2 1 C2.4140625 3.28515625 2.4140625 3.28515625 2.625 6.0625 C2.69976562 6.98160156 2.77453125 7.90070313 2.8515625 8.84765625 C2.90054688 9.55792969 2.94953125 10.26820313 3 11 C0.36 12.65 -2.28 14.3 -5 16 C-3.7315625 17.3303125 -3.7315625 17.3303125 -2.4375 18.6875 C1.34089293 23.04787289 3.7941491 27.98383499 6.38671875 33.109375 C8.25206581 36.4596696 8.25206581 36.4596696 11 39 C13.04100238 39.57017808 13.04100238 39.57017808 15.1875 39.6875 C16.445625 39.790625 17.70375 39.89375 19 40 C19 43.3 19 46.6 19 50 C11.98454141 50.46425829 5.57500766 50.79213424 0 46 C-4.09388662 40.80860336 -7.0190395 34.96686314 -10.0625 29.125 C-12.51684106 24.64454927 -14.43465234 21.57319595 -19 19 C-23.29 18.34 -27.58 17.68 -32 17 C-32 27.56 -32 38.12 -32 49 C-35.63 49 -39.26 49 -43 49 C-43 35.47 -43 21.94 -43 8 C-38.35070786 7.07014157 -37.25393073 7.09019979 -33 8 C-20.09134588 8.6739458 -10.45851903 8.23330222 0 0 Z " fill="#171717" transform="translate(370,277)"/>
<path d="M0 0 C3.320625 -0.061875 6.64125 -0.12375 10.0625 -0.1875 C11.09511963 -0.21481201 12.12773926 -0.24212402 13.19165039 -0.27026367 C20.41886732 -0.33509739 25.20401938 0.5768168 30.8125 5.4375 C34.91826058 10.24710525 35.50387398 13.93572609 35.37890625 20.17578125 C34.5778459 26.14657131 31.54382732 29.77123948 26.9375 33.4375 C22.90602768 35.58190017 19.77323257 36.12675149 15.234375 36.09765625 C14.43225586 36.09515869 13.63013672 36.09266113 12.80371094 36.09008789 C11.79598633 36.08098389 10.78826172 36.07187988 9.75 36.0625 C6.5325 36.041875 3.315 36.02125 0 36 C0 24.12 0 12.24 0 0 Z " fill="#C8C8C8" transform="translate(104,254)"/>
<path d="M0 0 C21.54315789 -0.63831579 21.54315789 -0.63831579 29.5 6.125 C33.05989291 10.57486614 32.52161544 15.5268177 32 21 C30.96399472 24.61612033 29.28776662 27.13709081 26.09375 29.27734375 C17.18554655 33.94750265 11.02514722 33 0 33 C0 22.11 0 11.22 0 0 Z " fill="#D2D2D2" transform="translate(338,253)"/>
<path d="M0 0 C3.63 0 7.26 0 11 0 C11 27.06 11 54.12 11 82 C7.37 82 3.74 82 0 82 C0 54.94 0 27.88 0 0 Z " fill="#151515" transform="translate(163,244)"/>
<path d="M0 0 C3.63 0 7.26 0 11 0 C11 0.66 11 1.32 11 2 C14.96 2 18.92 2 23 2 C22.01 2.495 22.01 2.495 21 3 C20.34444881 5.52733235 20.34444881 5.52733235 20 8 C16.7 8 13.4 8 10 8 C10.11864594 13.3020618 10.24291988 18.60395133 10.37231445 23.90576172 C10.41551311 25.70780898 10.45719824 27.5098932 10.49731445 29.31201172 C10.55538376 31.90864175 10.6189708 34.5050883 10.68359375 37.1015625 C10.70030624 37.9017984 10.71701874 38.7020343 10.73423767 39.52651978 C10.8456937 43.7753553 11.17753083 47.81448075 12 52 C11.01 52.495 11.01 52.495 10 53 C10 62.24 10 71.48 10 81 C6.7 81 3.4 81 0 81 C0 54.27 0 27.54 0 0 Z " fill="#0F0F0F" transform="translate(93,245)"/>
<path d="M0 0 C0.33 0 0.66 0 1 0 C1.61803552 13.98591498 -0.2314921 26.93343629 -9.0625 38.125 C-16.46962654 46.18243102 -26.21351067 49.56216198 -36.875 50.25 C-44.30816366 50.02700509 -51.56723413 48.82488782 -58 45 C-55.03065503 42.03065503 -51.67786725 42.57417925 -47.6875 42.4375 C-40.76541755 42.28339904 -40.76541755 42.28339904 -34 41 C-33.67 40.34 -33.34 39.68 -33 39 C-31.47606814 38.41027924 -29.92983493 37.87762036 -28.375 37.375 C-21.58881936 34.77314533 -18.07195691 30.42323315 -14.3828125 24.328125 C-12.62330656 20.09338188 -12.2069798 16.16332728 -11.8125 11.625 C-11.73064453 10.79355469 -11.64878906 9.96210938 -11.56445312 9.10546875 C-11.36571437 7.07131913 -11.18138416 5.03577051 -11 3 C-10.67 3 -10.34 3 -10 3 C-10 4.98 -10 6.96 -10 9 C-9.16855469 8.76603516 -9.16855469 8.76603516 -8.3203125 8.52734375 C-7.59585938 8.33269531 -6.87140625 8.13804687 -6.125 7.9375 C-5.40570313 7.74027344 -4.68640625 7.54304688 -3.9453125 7.33984375 C-2 7 -2 7 0 8 C0 5.36 0 2.72 0 0 Z " fill="#212121" transform="translate(478,277)"/>
<path d="M0 0 C41.95348837 0 41.95348837 0 51.25 7.6875 C53 10 53 10 54 12 C52.00045254 12.04254356 49.99958364 12.04080783 48 12 C47.505 11.505 47.505 11.505 47 11 C46.34 12.65 45.68 14.3 45 16 C42.2580298 14.91982992 39.62838609 13.81032207 37 12.46875 C32.16673471 10.39226896 27.25279966 10.43763089 22.0625 10.3125 C18.741875 10.209375 15.42125 10.10625 12 10 C12 21.88 12 33.76 12 46 C11.67 46 11.34 46 11 46 C11 33.79 11 21.58 11 9 C14.3 8.67 17.6 8.34 21 8 C21.33 6.68 21.66 5.36 22 4 C18.7 3.67 15.4 3.34 12 3 C12 2.34 12 1.68 12 1 C8.37 1 4.74 1 1 1 C1 27.73 1 54.46 1 82 C0.67 82 0.34 82 0 82 C0 54.94 0 27.88 0 0 Z " fill="#2B2B2B" transform="translate(92,244)"/>
<path d="M0 0 C2.31 0 4.62 0 7 0 C6.67 1.32 6.34 2.64 6 4 C6.66 4.33 7.32 4.66 8 5 C7.67 6.32 7.34 7.64 7 9 C7.66 9 8.32 9 9 9 C9.33 8.01 9.66 7.02 10 6 C10 19.2 10 32.4 10 46 C6.7 46 3.4 46 0 46 C0 30.82 0 15.64 0 0 Z " fill="#080808" transform="translate(277,279)"/>
<path d="M0 0 C0.33 0.66 0.66 1.32 1 2 C1.66 2 2.32 2 3 2 C3 1.34 3 0.68 3 0 C3.66 0 4.32 0 5 0 C5 1.32 5 2.64 5 4 C6.32 4.33 7.64 4.66 9 5 C9.66 3.68 10.32 2.36 11 1 C11.61488281 2.12019531 12.22976563 3.24039062 12.86328125 4.39453125 C13.67942102 5.8673352 14.49584201 7.33998334 15.3125 8.8125 C15.71662109 9.55048828 16.12074219 10.28847656 16.53710938 11.04882812 C16.93349609 11.76103516 17.32988281 12.47324219 17.73828125 13.20703125 C18.09962158 13.8616333 18.46096191 14.51623535 18.83325195 15.19067383 C20.53367007 17.82758503 21.94132084 19.73482415 25.04296875 20.51171875 C25.75066406 20.56972656 26.45835937 20.62773437 27.1875 20.6875 C28.445625 20.790625 29.70375 20.89375 31 21 C31 24.3 31 27.6 31 31 C23.98454141 31.46425829 17.57500766 31.79213424 12 27 C9.2712353 23.53969413 7.12373514 19.85455441 5 16 C4.43925781 14.99066406 3.87851562 13.98132813 3.30078125 12.94140625 C2.27537676 11.0718431 1.26103258 9.19613812 0.26171875 7.3125 C-1.04427468 4.83779758 -1.04427468 4.83779758 -3 2 C-2.01 1.34 -1.02 0.68 0 0 Z " fill="#1E1E1E" transform="translate(358,296)"/>
<path d="M0 0 C0 0.66 0 1.32 0 2 C0.66 2 1.32 2 2 2 C-0.18165849 7.75957842 -5.68393038 9.60283333 -11 12 C-20.54633353 15.23294362 -31.63153874 14.89929858 -41.03515625 11.19921875 C-42.38755275 10.52461908 -43.70097394 9.77239387 -45 9 C-42.03065503 6.03065503 -38.67786725 6.57417925 -34.6875 6.4375 C-27.76541755 6.28339904 -27.76541755 6.28339904 -21 5 C-20.67 4.34 -20.34 3.68 -20 3 C-7.1389285 -3.48645345 -7.1389285 -3.48645345 0 0 Z " fill="#1F1F1F" transform="translate(465,313)"/>
<path d="M0 0 C1.75 1.5 1.75 1.5 3 3 C3.99 3 4.98 3 6 3 C6.33 2.01 6.66 1.02 7 0 C10.3 0 13.6 0 17 0 C17 0.66 17 1.32 17 2 C14.36 2 11.72 2 9 2 C9 3.65 9 5.3 9 7 C11.31 7 13.62 7 16 7 C16 7.66 16 8.32 16 9 C13.69 9 11.38 9 9 9 C9 10.98 9 12.96 9 15 C11.64 15 14.28 15 17 15 C17 15.66 17 16.32 17 17 C13.7 17 10.4 17 7 17 C7 16.34 7 15.68 7 15 C3.28400809 14.79913557 2.22791555 14.8480563 -1 17 C-3.9375 17.4375 -3.9375 17.4375 -7 17 C-9.50806657 14.88794394 -10.75114713 13.28235407 -11.3828125 10.02734375 C-11.57300962 6.63549519 -11.24054721 4.38487554 -9.4375 1.5 C-6.08965651 -0.56021138 -3.85985753 -0.49125459 0 0 Z " fill="#B7B7B7" transform="translate(221,205)"/>
<path d="M0 0 C3 2 3 2 3.6875 4.125 C3.8421875 5.053125 3.8421875 5.053125 4 6 C4.680625 5.01 5.36125 4.02 6.0625 3 C8.41931921 0.12994795 8.77121601 0.02669147 12.75 -0.4375 C16 0 16 0 17 1 C17.15193163 3.12119924 17.22183514 5.24855315 17.25 7.375 C17.27578125 8.53773438 17.3015625 9.70046875 17.328125 10.8984375 C17 14 17 14 15.81225586 15.67553711 C13.34117956 17.48149008 11.71596998 17.34335862 8.67578125 17.29296875 C7.64775391 17.28330078 6.61972656 17.27363281 5.56054688 17.26367188 C3.95276367 17.2259668 3.95276367 17.2259668 2.3125 17.1875 C1.22904297 17.17396484 0.14558594 17.16042969 -0.97070312 17.14648438 C-3.64763405 17.11110643 -6.32356838 17.06174189 -9 17 C-9 16.01 -9 15.02 -9 14 C-7.04109119 12.60699818 -5.0360882 11.27754554 -3 10 C-1.12109566 8.62493901 -1.12109566 8.62493901 0 7 C0 5.68 0 4.36 0 3 C-1.65 3 -3.3 3 -5 3 C-5.33 3.66 -5.66 4.32 -6 5 C-6.66 5 -7.32 5 -8 5 C-7.625 3.0625 -7.625 3.0625 -7 1 C-4.47454232 -0.26272884 -2.80127043 -0.20497101 0 0 Z " fill="#CDCDCD" transform="translate(335,205)"/>
<path d="M0 0 C0.66 0.33 1.32 0.66 2 1 C2.4140625 3.28515625 2.4140625 3.28515625 2.625 6.0625 C2.69976562 6.98160156 2.77453125 7.90070313 2.8515625 8.84765625 C2.90054687 9.55792969 2.94953125 10.26820313 3 11 C0.36 12.65 -2.28 14.3 -5 16 C-4.01 16.99 -3.02 17.98 -2 19 C-1.8125 22.1875 -1.8125 22.1875 -2 25 C-3.65 24.34 -5.3 23.68 -7 23 C-7 21.68 -7 20.36 -7 19 C-7.66 19 -8.32 19 -9 19 C-9 19.66 -9 20.32 -9 21 C-14.18383169 21 -17.07408333 20.50528274 -21 17 C-21 16.34 -21 15.68 -21 15 C-20.01 14.34 -19.02 13.68 -18 13 C-17.67 12.01 -17.34 11.02 -17 10 C-16.01 10 -15.02 10 -14 10 C-14 9.34 -14 8.68 -14 8 C-12.98679687 7.51080078 -12.98679687 7.51080078 -11.953125 7.01171875 C-11.06109375 6.57472656 -10.1690625 6.13773437 -9.25 5.6875 C-8.36828125 5.25824219 -7.4865625 4.82898438 -6.578125 4.38671875 C-4.18399785 3.09896854 -2.12223042 1.69084246 0 0 Z " fill="#0A0A0A" transform="translate(370,277)"/>
<path d="M0 0 C4.95 0 9.9 0 15 0 C15 5.61 15 11.22 15 17 C10.05 17 5.1 17 0 17 C0 11.39 0 5.78 0 0 Z " fill="#AB052C" transform="translate(290,205)"/>
<path d="M0 0 C4.95 0 9.9 0 15 0 C15 5.61 15 11.22 15 17 C10.05 17 5.1 17 0 17 C0 11.39 0 5.78 0 0 Z " fill="#3D7C45" transform="translate(260,205)"/>
<path d="M0 0 C-0.66 0.66 -1.32 1.32 -2 2 C-2.99 2 -3.98 2 -5 2 C-5 2.66 -5 3.32 -5 4 C-4.01 4 -3.02 4 -2 4 C-2.54087318 7.78611227 -4.11722332 9.55400767 -7 12 C-7.66 12 -8.32 12 -9 12 C-9 13.32 -9 14.64 -9 16 C-8.34 16 -7.68 16 -7 16 C-6.67 15.34 -6.34 14.68 -6 14 C-6.1875 15.875 -6.1875 15.875 -7 18 C-11.17655714 20.53124675 -15.27433194 20.16019214 -20 20 C-19.67 17.36 -19.34 14.72 -19 12 C-19.66 12 -20.32 12 -21 12 C-21 11.34 -21 10.68 -21 10 C-20.34 9.67 -19.68 9.34 -19 9 C-19 7.02 -19 5.04 -19 3 C-16.39816412 2.30238463 -13.79416398 1.61662226 -11.1875 0.9375 C-10.08051758 0.63875977 -10.08051758 0.63875977 -8.95117188 0.33398438 C-3.33984375 -1.11328125 -3.33984375 -1.11328125 0 0 Z " fill="#CFCFCF" transform="translate(459,324)"/>
<path d="M0 0 C9.9 0 19.8 0 30 0 C30 0.33 30 0.66 30 1 C20.43 1 10.86 1 1 1 C1 28.06 1 55.12 1 83 C4.63 83 8.26 83 12 83 C12 83.33 12 83.66 12 84 C10.35 84 8.7 84 7 84 C7 84.66 7 85.32 7 86 C5.37536158 86.05395478 3.75021459 86.09277195 2.125 86.125 C1.22007812 86.14820313 0.31515625 86.17140625 -0.6171875 86.1953125 C-3 86 -3 86 -5 84 C-4.02426025 83.26245483 -4.02426025 83.26245483 -3.02880859 82.51000977 C-0.25483437 79.07809292 -0.45896663 76.06115436 -0.5390625 71.83984375 C-0.53997894 71.05356094 -0.54089539 70.26727814 -0.5418396 69.45716858 C-0.5478697 67.7987767 -0.56359817 66.14039542 -0.58837891 64.48217773 C-0.62492388 61.94278901 -0.6293979 59.40485882 -0.62890625 56.86523438 C-0.63873657 55.25259155 -0.65039321 53.6399586 -0.6640625 52.02734375 C-0.66628815 51.26791977 -0.66851379 50.50849579 -0.67080688 49.72605896 C-0.73870855 45.96046429 -0.86049451 44.20925824 -3 41 C-3.66 41 -4.32 41 -5 41 C-5 38.36 -5 35.72 -5 33 C-6.32 32.67 -7.64 32.34 -9 32 C-7.02 32 -5.04 32 -3 32 C-2.67 30.68 -2.34 29.36 -2 28 C-3.32 28.33 -4.64 28.66 -6 29 C-6 28.01 -6 27.02 -6 26 C-4.68 26 -3.36 26 -2 26 C-0.71394339 23.42788678 -0.78956059 21.43093034 -0.68359375 18.5546875 C-0.64548584 17.58515137 -0.60737793 16.61561523 -0.56811523 15.61669922 C-0.50346069 13.76455811 -0.50346069 13.76455811 -0.4375 11.875 C-0.293125 7.95625 -0.14875 4.0375 0 0 Z " fill="#AFAFAF" transform="translate(326,243)"/>
<path d="M0 0 C2.64 0.33 5.28 0.66 8 1 C8 0.67 8 0.34 8 0 C10.64 0 13.28 0 16 0 C17.03405665 4.2654837 17 7.37316973 17 12 C10.07 12 3.14 12 -4 12 C-3 6 -3 6 -2 4 C-1.01 3.67 -0.02 3.34 1 3 C0.67 2.01 0.34 1.02 0 0 Z " fill="#E3E3E3" transform="translate(272,231)"/>
<path d="M0 0 C0.99 0.66 1.98 1.32 3 2 C5.32387947 2.39387788 7.65793749 2.73486085 10 3 C10 3.33 10 3.66 10 4 C7.03 4 4.06 4 1 4 C1 31.06 1 58.12 1 86 C0.67 86 0.34 86 0 86 C0 60.59 0 35.18 0 9 C-2.64 9 -5.28 9 -8 9 C-10.00720923 8.71325582 -12.01178687 8.39764263 -14 8 C-14.04254356 9.99954746 -14.04080783 12.00041636 -14 14 C-13.67 14.33 -13.34 14.66 -13 15 C-12.95936168 16.66617115 -12.957279 18.33388095 -13 20 C-15.25245881 17.31158141 -16.88213958 15.35358125 -18 12 C-19.69769234 10.89831016 -19.69769234 10.89831016 -22 10 C-22.60070312 9.73960937 -23.20140625 9.47921875 -23.8203125 9.2109375 C-25.5429003 8.46471526 -27.27109245 7.73146089 -29 7 C-25.57905758 4.71937172 -24.31812778 4.78074993 -20.3125 4.875 C-18.82169922 4.90207031 -18.82169922 4.90207031 -17.30078125 4.9296875 C-16.54152344 4.95289063 -15.78226563 4.97609375 -15 5 C-15 5.66 -15 6.32 -15 7 C-13.02013918 6.88652381 -11.04108402 6.7589065 -9.0625 6.625 C-7.40927734 6.52058594 -7.40927734 6.52058594 -5.72265625 6.4140625 C-4.82417969 6.27742187 -3.92570312 6.14078125 -3 6 C-2.67 5.34 -2.34 4.68 -2 4 C-1.34 4 -0.68 4 0 4 C-0.33 3.01 -0.66 2.02 -1 1 C-0.67 0.67 -0.34 0.34 0 0 Z " fill="#D4D4D4" transform="translate(162,240)"/>
<path d="M0 0 C0.93457031 0.00322266 1.86914062 0.00644531 2.83203125 0.00976562 C3.80011719 0.01814453 4.76820313 0.02652344 5.765625 0.03515625 C6.74917969 0.03966797 7.73273438 0.04417969 8.74609375 0.04882812 C11.16929694 0.06059125 13.59246877 0.07852607 16.015625 0.09765625 C16.015625 3.06765625 16.015625 6.03765625 16.015625 9.09765625 C7.765625 9.09765625 -0.484375 9.09765625 -8.984375 9.09765625 C-8.984375 8.10765625 -8.984375 7.11765625 -8.984375 6.09765625 C-8.324375 5.76765625 -7.664375 5.43765625 -6.984375 5.09765625 C-7.644375 3.77765625 -8.304375 2.45765625 -8.984375 1.09765625 C-5.9161112 0.20015803 -3.19167524 -0.01946143 0 0 Z " fill="#101010" transform="translate(297.984375,243.90234375)"/>
<path d="M0 0 C3.125 0.1875 3.125 0.1875 6.125 2.1875 C5.795 3.1775 5.465 4.1675 5.125 5.1875 C4.465 4.5275 3.805 3.8675 3.125 3.1875 C1.13678687 2.78985737 -0.86444339 2.44974651 -2.875 2.1875 C-2.68543068 4.16238225 -2.68543068 4.16238225 -1.875 6.1875 C-0.04752029 7.13771766 -0.04752029 7.13771766 2.125 7.625 C4.30859375 8.33984375 4.30859375 8.33984375 6.125 9.1875 C7.53529704 12.50584598 7.26742192 13.76023425 6.125 17.1875 C7.445 17.1875 8.765 17.1875 10.125 17.1875 C10.125 11.5775 10.125 5.9675 10.125 0.1875 C10.785 0.1875 11.445 0.1875 12.125 0.1875 C12.455 6.4575 12.785 12.7275 13.125 19.1875 C11.805 19.1875 10.485 19.1875 9.125 19.1875 C9.125 20.8375 9.125 22.4875 9.125 24.1875 C7.805 24.1875 6.485 24.1875 5.125 24.1875 C5.125 22.5375 5.125 20.8875 5.125 19.1875 C3.866875 19.290625 2.60875 19.39375 1.3125 19.5 C-0.89453125 19.51171875 -0.89453125 19.51171875 -2.875 19.1875 C-4.90329372 16.77890121 -5.875 15.35705691 -5.875 12.1875 C-5.070625 12.6825 -5.070625 12.6825 -4.25 13.1875 C-1.3358939 14.41449204 0.99367708 14.32983286 4.125 14.1875 C4.125 13.1975 4.125 12.2075 4.125 11.1875 C3.01125 10.73375 1.8975 10.28 0.75 9.8125 C-2.875 8.1875 -2.875 8.1875 -4.875 6.1875 C-4.15346072 0.27087787 -4.15346072 0.27087787 0 0 Z " fill="#B1B1B1" transform="translate(177.875,204.8125)"/>
<path d="M0 0 C3.125 0.4375 3.125 0.4375 5.5 2.8125 C7.125 5.4375 7.125 5.4375 7.125 7.4375 C7.888125 7.086875 8.65125 6.73625 9.4375 6.375 C12.125 5.4375 12.125 5.4375 15.125 6.4375 C13.75 7.9375 13.75 7.9375 12.125 9.4375 C11.465 9.4375 10.805 9.4375 10.125 9.4375 C9.795 10.4275 9.465 11.4175 9.125 12.4375 C5.91215662 14.32329937 3.87866417 15.4375 0.125 15.4375 C0.021875 14.798125 -0.08125 14.15875 -0.1875 13.5 C-0.414375 12.819375 -0.64125 12.13875 -0.875 11.4375 C-1.865 11.1075 -2.855 10.7775 -3.875 10.4375 C-5.25625018 7.67499964 -5.06579306 5.49018901 -4.875 2.4375 C-2.875 0.4375 -2.875 0.4375 0 0 Z " fill="#CDCDCD" transform="translate(426.875,100.5625)"/>
<path d="M0 0 C8.25 0 16.5 0 25 0 C25 2.64 25 5.28 25 8 C19.39 8 13.78 8 8 8 C8 6.35 8 4.7 8 3 C5.36 3 2.72 3 0 3 C0 2.01 0 1.02 0 0 Z " fill="#0F0F0F" transform="translate(212,317)"/>
<path d="M0 0 C5.94 0.99 5.94 0.99 12 2 C11.88630789 4.45933991 11.75957349 6.9167909 11.625 9.375 C11.57859375 10.42300781 11.57859375 10.42300781 11.53125 11.4921875 C11.2265625 16.7734375 11.2265625 16.7734375 9 19 C6.3984375 18.9765625 6.3984375 18.9765625 3.375 18.625 C2.37210937 18.51414063 1.36921875 18.40328125 0.3359375 18.2890625 C-0.82035156 18.14597656 -0.82035156 18.14597656 -2 18 C-2 15 -2 15 -0.5 13.3125 C-0.005 12.879375 0.49 12.44625 1 12 C0.34 10.68 -0.32 9.36 -1 8 C2.3 8.33 5.6 8.66 9 9 C9 7.35 9 5.7 9 4 C6.36 3.67 3.72 3.34 1 3 C0.67 2.01 0.34 1.02 0 0 Z " fill="#D4D4D4" transform="translate(508,148)"/>
<path d="M0 0 C4.62 0 9.24 0 14 0 C14.13485114 8.0910683 14.13485114 8.0910683 13 12 C12.6503582 14.33094534 12.31445513 16.66404762 12 19 C10.02 18.67 8.04 18.34 6 18 C6 12.72 6 7.44 6 2 C4.02 2 2.04 2 0 2 C0 1.34 0 0.68 0 0 Z " fill="#C7C7C7" transform="translate(182,348)"/>
<path d="M0 0 C1.60875 -0.04125 3.2175 -0.0825 4.875 -0.125 C5.77992187 -0.14820313 6.68484375 -0.17140625 7.6171875 -0.1953125 C10 0 10 0 12 2 C12.3267107 5.07108055 12.48138276 7.15050101 10.9375 9.875 C7.99772876 11.58196395 5.32129197 11.18799766 2 11 C2 13.31 2 15.62 2 18 C1.34 18 0.68 18 0 18 C0 12.06 0 6.12 0 0 Z " fill="#878787" transform="translate(110,348)"/>
<path d="M0 0 C0.66 0 1.32 0 2 0 C2 1.98 2 3.96 2 6 C3.175625 6.2165625 3.175625 6.2165625 4.375 6.4375 C7 7 7 7 9 8 C9 8.66 9 9.32 9 10 C10.98 9.67 12.96 9.34 15 9 C14.67 9.66 14.34 10.32 14 11 C13.01 11 12.02 11 11 11 C11 11.66 11 12.32 11 13 C9.02 13.66 7.04 14.32 5 15 C5 15.66 5 16.32 5 17 C2.69 17.66 0.38 18.32 -2 19 C-3.32963842 15.01108475 -2.38405007 11.81537164 -1.5625 7.8125 C-1.41490234 7.06291016 -1.26730469 6.31332031 -1.11523438 5.54101562 C-0.75027209 3.69265826 -0.37602589 1.84613839 0 0 Z " fill="#CECECE" transform="translate(459,126)"/>
<path d="M0 0 C1.8871875 0.061875 1.8871875 0.061875 3.8125 0.125 C4.9024321 3.49388105 4.88319492 4.93523996 3.625 8.3125 C1.73598893 11.24372408 1.11154366 12.20859898 -2.1875 13.125 C-4.51953812 13.2027346 -6.85589059 13.21467728 -9.1875 13.125 C-8.93250159 11.33101116 -8.65796186 9.53979125 -8.375 7.75 C-8.22417969 6.75226563 -8.07335937 5.75453125 -7.91796875 4.7265625 C-6.69409026 0.36772253 -4.09933691 -0.13440449 0 0 Z " fill="#0E0E0E" transform="translate(412.1875,262.875)"/>
<path d="M0 0 C0.66 0 1.32 0 2 0 C4.04039507 3.77473088 5.70583562 7.61982363 7.25 11.625 C7.60578125 12.54539062 7.9615625 13.46578125 8.328125 14.4140625 C9.02922551 17.11248423 8.94528396 18.41864766 8 21 C7.67 19.68 7.34 18.36 7 17 C4.03 17 1.06 17 -2 17 C-2.33 18.32 -2.66 19.64 -3 21 C-4.00806305 17.97581084 -4.01845685 17.0259388 -3.4765625 14.0234375 C-3.3425 13.270625 -3.2084375 12.5178125 -3.0703125 11.7421875 C-2.92335937 10.96101563 -2.77640625 10.17984375 -2.625 9.375 C-2.48578125 8.58609375 -2.3465625 7.7971875 -2.203125 6.984375 C-1.13839286 1.13839286 -1.13839286 1.13839286 0 0 Z " fill="#797979" transform="translate(137,344)"/>
<path d="M0 0 C0 0.66 0 1.32 0 2 C0.66 2 1.32 2 2 2 C0.25 5.875 0.25 5.875 -2 7 C-4.88370333 7.07194869 -7.74239664 7.09291708 -10.625 7.0625 C-11.42679687 7.05798828 -12.22859375 7.05347656 -13.0546875 7.04882812 C-15.03649006 7.03703168 -17.01825433 7.01909605 -19 7 C-19 6.34 -19 5.68 -19 5 C-12.90165821 -0.72874532 -7.78826977 -3.01994134 0 0 Z " fill="#131313" transform="translate(465,313)"/>
<path d="M0 0 C0.99 0 1.98 0 3 0 C4.00399524 2.62353518 5.00334445 5.24867795 6 7.875 C6.28617187 8.62136719 6.57234375 9.36773437 6.8671875 10.13671875 C9 15.7734375 9 15.7734375 9 18 C8.01 18 7.02 18 6 18 C5.67 16.68 5.34 15.36 5 14 C-0.58500567 14.19898708 -0.58500567 14.19898708 -5 17 C-5.57228292 10.89564881 -2.85637299 5.27330399 0 0 Z " fill="#878787" transform="translate(376,348)"/>
<path d="M0 0 C3.33333333 0 6.66666667 0 10 0 C10.66 1.98 11.32 3.96 12 6 C10.68 6 9.36 6 8 6 C8.350625 6.556875 8.70125 7.11375 9.0625 7.6875 C10.21845993 10.53886783 9.80967438 12.08517222 9 15 C7.35 15 5.7 15 4 15 C4 13.35 4 11.7 4 10 C4.66 10 5.32 10 6 10 C6 9.01 6 8.02 6 7 C4.68 7 3.36 7 2 7 C2 8.65 2 10.3 2 12 C0.4375 10.5 0.4375 10.5 -1 8 C-0.96823234 5.22562457 -0.50364148 2.74713533 0 0 Z " fill="#E8E8E8" transform="translate(346,270)"/>
<path d="M0 0 C1.93171878 1.93171878 1.64745192 5.39995789 2 8 C2.33 9.32 2.66 10.64 3 12 C-0.63 12 -4.26 12 -8 12 C-9.3260274 4.76712329 -9.3260274 4.76712329 -7.9375 1.5 C-5.23139952 -0.59504554 -3.33079213 -0.36204262 0 0 Z " fill="#CECECE" transform="translate(504,399)"/>
<path d="M0 0 C1.828125 0.03515625 1.828125 0.03515625 4 1 C5.13266715 3.52465547 5.97728657 5.8059005 6.75 8.4375 C6.97042969 9.13166016 7.19085938 9.82582031 7.41796875 10.54101562 C9 15.61628979 9 15.61628979 9 18 C8.34 18 7.68 18 7 18 C6.67 16.35 6.34 14.7 6 13 C3.03 13 0.06 13 -3 13 C-3.33 14.32 -3.66 15.64 -4 17 C-5.3274855 13.01754349 -3.99907829 10.55210457 -2.5625 6.8125 C-2.19801758 5.83120117 -2.19801758 5.83120117 -1.82617188 4.83007812 C-1.2256707 3.21696714 -0.61390797 1.6080565 0 0 Z " fill="#8C8C8C" transform="translate(428,348)"/>
<path d="M0 0 C0.99 0 1.98 0 3 0 C3.52769157 2.81137374 4.047444 5.62380982 4.5625 8.4375 C4.71396484 9.23994141 4.86542969 10.04238281 5.02148438 10.86914062 C5.39092908 12.9053824 5.70029016 14.95233207 6 17 C4.18884044 18.81115956 1.38721773 18.38199448 -1.0625 18.5625 C-2.71958984 18.68818359 -2.71958984 18.68818359 -4.41015625 18.81640625 C-5.26480469 18.87699219 -6.11945312 18.93757813 -7 19 C-7 18.01 -7 17.02 -7 16 C-5.02 16 -3.04 16 -1 16 C-0.01 14.02 0.98 12.04 2 10 C1.484375 10.165 0.96875 10.33 0.4375 10.5 C-2.73363876 11.15049 -5.77218334 11.0620734 -9 11 C-8.67 10.01 -8.34 9.02 -8 8 C-6.15234375 7.26953125 -6.15234375 7.26953125 -3.9375 6.8125 C-2.83728516 6.57466797 -2.83728516 6.57466797 -1.71484375 6.33203125 C-1.14894531 6.22246094 -0.58304688 6.11289063 0 6 C0 4.02 0 2.04 0 0 Z " fill="#C5C5C5" transform="translate(551,148)"/>
<path d="M0 0 C2.5 2.75 2.5 2.75 4 6 C3.75 8.875 3.75 8.875 3 11 C2.34 10.67 1.68 10.34 1 10 C0.5978125 8.2984375 0.5978125 8.2984375 0.1875 6.5625 C-0.60878998 2.82740532 -0.60878998 2.82740532 -3.625 1.5625 C-4.40875 1.376875 -5.1925 1.19125 -6 1 C-5.79503906 1.60328125 -5.59007812 2.2065625 -5.37890625 2.828125 C-5.10949219 3.62734375 -4.84007812 4.4265625 -4.5625 5.25 C-4.16224609 6.43335937 -4.16224609 6.43335937 -3.75390625 7.640625 C-3.50511719 8.41921875 -3.25632812 9.1978125 -3 10 C-2.76152344 10.69609375 -2.52304687 11.3921875 -2.27734375 12.109375 C-2 14 -2 14 -4 17 C-7.125 17.1875 -7.125 17.1875 -10 17 C-10.33 16.01 -10.66 15.02 -11 14 C-11.66 14 -12.32 14 -13 14 C-13 11.36 -13 8.72 -13 6 C-12.34 6 -11.68 6 -11 6 C-11 7.98 -11 9.96 -11 12 C-10.34 12 -9.68 12 -9 12 C-9 12.66 -9 13.32 -9 14 C-7.35 14 -5.7 14 -4 14 C-4.66 12.02 -5.32 10.04 -6 8 C-6.66 8 -7.32 8 -8 8 C-8.33 5.36 -8.66 2.72 -9 0 C-5.74048884 -1.62975558 -3.45293671 -0.89300087 0 0 Z " fill="#D1D1D1" transform="translate(453,118)"/>
<path d="M0 0 C1.8984375 0.20703125 1.8984375 0.20703125 4 1 C4.9765625 3.07421875 4.9765625 3.07421875 5.625 5.6875 C5.86089844 6.58597656 6.09679687 7.48445313 6.33984375 8.41015625 C6.55769531 9.26480469 6.77554687 10.11945313 7 11 C7.65629516 13.00342734 8.31760646 15.00531118 9 17 C8.01 16.67 7.02 16.34 6 16 C6 15.01 6 14.02 6 13 C1.94914321 13.24631557 1.94914321 13.24631557 -2 14 C-3.5899433 15.92064793 -3.5899433 15.92064793 -4 18 C-5.72251754 13.9154674 -4.07280563 10.63026304 -2.5625 6.75 C-2.31951172 6.1003125 -2.07652344 5.450625 -1.82617188 4.78125 C-1.22714006 3.18383183 -0.61485679 1.59139406 0 0 Z " fill="#8A8A8A" transform="translate(312,348)"/>
<path d="M0 0 C0.99 0 1.98 0 3 0 C4.00399524 2.62353518 5.00334445 5.24867795 6 7.875 C6.28617188 8.62136719 6.57234375 9.36773437 6.8671875 10.13671875 C9 15.7734375 9 15.7734375 9 18 C8.34 18 7.68 18 7 18 C6.67 16.35 6.34 14.7 6 13 C3.03 13 0.06 13 -3 13 C-3.33 14.32 -3.66 15.64 -4 17 C-5.3274855 13.01754349 -3.99907829 10.55210457 -2.5625 6.8125 C-2.19801758 5.83120117 -2.19801758 5.83120117 -1.82617188 4.83007812 C-1.2256707 3.21696714 -0.61390797 1.6080565 0 0 Z " fill="#A2A2A2" transform="translate(212,348)"/>
<path d="M0 0 C2.8712936 0.25568326 5.70565708 0.56806088 8.5625 0.9375 C9.36880859 1.03740234 10.17511719 1.13730469 11.00585938 1.24023438 C13.00452132 1.48858882 15.00234487 1.7436731 17 2 C17 2.33 17 2.66 17 3 C12.545 3.495 12.545 3.495 8 4 C8 3.34 8 2.68 8 2 C6.35 2 4.7 2 3 2 C3.33 3.98 3.66 5.96 4 8 C7.69541586 8.95024979 10.30458414 8.95024979 14 8 C14 8.66 14 9.32 14 10 C12.68 10 11.36 10 10 10 C9.67 10.99 9.34 11.98 9 13 C5.7 13 2.4 13 -1 13 C-1.02686553 11.02090602 -1.04633375 9.04171029 -1.0625 7.0625 C-1.07410156 5.96035156 -1.08570313 4.85820312 -1.09765625 3.72265625 C-1 1 -1 1 0 0 Z " fill="#0C0C0C" transform="translate(328,284)"/>
<path d="M0 0 C0 5.61 0 11.22 0 17 C-1.32 17 -2.64 17 -4 17 C-4 14.69 -4 12.38 -4 10 C-8.455 8.02 -8.455 8.02 -13 6 C-13 4.68 -13 3.36 -13 2 C-10.125 1.875 -10.125 1.875 -7 2 C-6.34 2.66 -5.68 3.32 -5 4 C-5 3.01 -5 2.02 -5 1 C-1.125 0 -1.125 0 0 0 Z " fill="#D6D6D6" transform="translate(188,205)"/>
<path d="M0 0 C4.95 0 9.9 0 15 0 C15 5.61 15 11.22 15 17 C10.05 17 5.1 17 0 17 C0 11.39 0 5.78 0 0 Z M2 4 C1.63539547 6.66653905 1.63539547 6.66653905 1.8125 9.625 C1.83957031 10.62789062 1.86664063 11.63078125 1.89453125 12.6640625 C1.92933594 13.43492187 1.96414063 14.20578125 2 15 C4.52475462 16.26237731 6.31200466 16.09856404 9.125 16.0625 C10.73375 16.041875 12.3425 16.02125 14 16 C13.67 11.38 13.34 6.76 13 2 C11.1128125 1.938125 11.1128125 1.938125 9.1875 1.875 C8.47980469 1.85179687 7.77210938 1.82859375 7.04296875 1.8046875 C4.68640281 1.86745538 4.68640281 1.86745538 2 4 Z " fill="#9E1036" transform="translate(290,205)"/>
<path d="M0 0 C1.485 0.99 1.485 0.99 3 2 C5.32387947 2.39387788 7.65793749 2.73486085 10 3 C10 3.33 10 3.66 10 4 C7.03 4 4.06 4 1 4 C1 31.06 1 58.12 1 86 C0.67 86 0.34 86 0 86 C-0.15357447 74.93472117 -0.30175623 63.86938474 -0.4429636 52.80394077 C-0.50869609 47.66637264 -0.57631905 42.5288436 -0.64819336 37.39135742 C-0.71742694 32.43773762 -0.78178495 27.48407672 -0.84269524 22.53034782 C-0.86685782 20.63600279 -0.89280737 18.74167972 -0.92053413 16.8473835 C-0.95893068 14.20371057 -0.99109637 11.56003241 -1.02172852 8.91625977 C-1.03467453 8.12504227 -1.04762054 7.33382477 -1.06095886 6.51863098 C-1.07903033 4.67906386 -1.04521436 2.83910017 -1 1 C-0.67 0.67 -0.34 0.34 0 0 Z " fill="#C2C2C2" transform="translate(162,240)"/>
<path d="M0 0 C0.75410156 0.00451172 1.50820313 0.00902344 2.28515625 0.01367188 C4.14847127 0.02546501 6.01174555 0.04340058 7.875 0.0625 C7.90388514 3.20831423 7.92175923 6.35409469 7.9375 9.5 C7.94587891 10.39783203 7.95425781 11.29566406 7.96289062 12.22070312 C7.96772461 13.50170898 7.96772461 13.50170898 7.97265625 14.80859375 C7.98051147 15.99473267 7.98051147 15.99473267 7.98852539 17.20483398 C7.875 19.0625 7.875 19.0625 6.875 20.0625 C4.20441149 20.20365161 1.55067762 20.10497107 -1.125 20.0625 C-1.455 20.7225 -1.785 21.3825 -2.125 22.0625 C-2.455 21.7325 -2.785 21.4025 -3.125 21.0625 C-5.45317964 20.69489269 -7.7868385 20.36008419 -10.125 20.0625 C-10.11339844 19.47082031 -10.10179687 18.87914062 -10.08984375 18.26953125 C-10.0252982 13.26150362 -10.0252982 13.26150362 -10.6875 8.3125 C-11.21598847 5.59455929 -10.93062996 3.69910715 -10.125 1.0625 C-6.93675432 -0.53162284 -3.49603338 -0.03924735 0 0 Z M-8.125 1.0625 C-8.125 6.6725 -8.125 12.2825 -8.125 18.0625 C-3.175 18.0625 1.775 18.0625 6.875 18.0625 C6.875 12.4525 6.875 6.8425 6.875 1.0625 C1.925 1.0625 -3.025 1.0625 -8.125 1.0625 Z " fill="#C995A1" transform="translate(298.125,203.9375)"/>
<path d="M0 0 C0 1.65 0 3.3 0 5 C-5.28 4.67 -10.56 4.34 -16 4 C-16.33 4.66 -16.66 5.32 -17 6 C-18.98 5.34 -20.96 4.68 -23 4 C-23 2.68 -23 1.36 -23 0 C-7.25512528 -1.33257403 -7.25512528 -1.33257403 0 0 Z " fill="#CECECE" transform="translate(489,367)"/>
<path d="M0 0 C3.94875582 1.31625194 4.54992713 3.05365398 6.6875 6.5625 C7.31011719 7.57441406 7.93273437 8.58632813 8.57421875 9.62890625 C9.04472656 10.41136719 9.51523437 11.19382812 10 12 C10.33 8.04 10.66 4.08 11 0 C11.66 0 12.32 0 13 0 C13 5.61 13 11.22 13 17 C7.58617096 14.29308548 6.1966793 11.08562616 3 6 C2.67 9.63 2.34 13.26 2 17 C1.34 17 0.68 17 0 17 C0 11.39 0 5.78 0 0 Z " fill="#868686" transform="translate(397,348)"/>
<path d="M0 0 C0.99 0 1.98 0 3 0 C3.33 3.63 3.66 7.26 4 11 C-2.94029851 13.7761194 -2.94029851 13.7761194 -6 14 C-6.89074219 13.52304687 -7.78148437 13.04609375 -8.69921875 12.5546875 C-12.43819551 10.79360732 -15.26490172 10.50637256 -19.375 10.3125 C-20.62023437 10.24675781 -21.86546875 10.18101562 -23.1484375 10.11328125 C-24.08945312 10.07589844 -25.03046875 10.03851563 -26 10 C-26 9.67 -26 9.34 -26 9 C-17.42 9 -8.84 9 0 9 C0 6.03 0 3.06 0 0 Z " fill="#979797" transform="translate(314,244)"/>
<path d="M0 0 C2.9375 1.9375 2.9375 1.9375 5 5 C5.54569464 8.97064652 5.13121524 12.43261086 2.75390625 15.7265625 C1.25 17.125 1.25 17.125 -2 19 C-4.85873639 18.87005744 -6.46973714 18.26513143 -9 17 C-9 16.34 -9 15.68 -9 15 C-5.92382812 14.70703125 -5.92382812 14.70703125 -2.84765625 14.4140625 C-2.23792969 14.27742187 -1.62820313 14.14078125 -1 14 C-0.67 13.34 -0.34 12.68 0 12 C0.66 12 1.32 12 2 12 C1.34 9.36 0.68 6.72 0 4 C-3.66305234 3.25073929 -6.42355152 2.7619986 -10 4 C-10 3.34 -10 2.68 -10 2 C-6.58459721 -0.10178633 -3.97748585 -0.56821226 0 0 Z " fill="#CBCBCB" transform="translate(482,138)"/>
<path d="M0 0 C3.94875582 1.31625194 4.54992713 3.05365398 6.6875 6.5625 C7.31011719 7.57441406 7.93273437 8.58632812 8.57421875 9.62890625 C9.04472656 10.41136719 9.51523438 11.19382813 10 12 C10.33 8.04 10.66 4.08 11 0 C11.66 0 12.32 0 13 0 C13 5.61 13 11.22 13 17 C9.20379845 15.73459948 8.51321812 14.21781569 6.3125 10.9375 C5.68988281 10.01839844 5.06726563 9.09929687 4.42578125 8.15234375 C3.95527344 7.44207031 3.48476562 6.73179687 3 6 C2.67 9.3 2.34 12.6 2 16 C1.34 16 0.68 16 0 16 C0 10.72 0 5.44 0 0 Z " fill="#858585" transform="translate(194,205)"/>
<path d="M0 0 C1.9375 1.875 1.9375 1.875 3 4 C3 4.66 3 5.32 3 6 C2.34 6 1.68 6 1 6 C0.34 5.01 -0.32 4.02 -1 3 C-3.58380177 2.74969023 -3.58380177 2.74969023 -6 3 C-6.33 4.32 -6.66 5.64 -7 7 C-6.36191406 7.20496094 -5.72382813 7.40992188 -5.06640625 7.62109375 C-4.24011719 7.89050781 -3.41382813 8.15992188 -2.5625 8.4375 C-1.73878906 8.70433594 -0.91507813 8.97117187 -0.06640625 9.24609375 C2 10 2 10 3 11 C2.71269945 13.33944736 2.38063221 15.6739143 2 18 C0.56589632 18.24954005 -0.87260072 18.47392642 -2.3125 18.6875 C-3.11300781 18.81511719 -3.91351563 18.94273437 -4.73828125 19.07421875 C-7 19 -7 19 -8.79296875 17.64453125 C-10 16 -10 16 -10 14 C-9.34 14 -8.68 14 -8 14 C-7.67 14.66 -7.34 15.32 -7 16 C-4.36 16 -1.72 16 1 16 C0.85342916 14.03385733 0.85342916 14.03385733 0 12 C-2.08034294 10.8624787 -2.08034294 10.8624787 -4.5625 10.25 C-5.38878906 10.00765625 -6.21507812 9.7653125 -7.06640625 9.515625 C-7.70449219 9.34546875 -8.34257812 9.1753125 -9 9 C-9.33 6.69 -9.66 4.38 -10 2 C-6.29584707 -0.46943529 -4.37855495 -0.46913089 0 0 Z " fill="#797979" transform="translate(168,347)"/>
<path d="M0 0 C2.5 0.125 2.5 0.125 3.5 1.125 C3.59851171 2.95615883 3.62972629 4.79119933 3.625 6.625 C3.62757813 7.6253125 3.63015625 8.625625 3.6328125 9.65625 C3.5 12.125 3.5 12.125 2.5 13.125 C0 13.25 0 13.25 -2.5 13.125 C-3.5 12.125 -3.5 12.125 -3.6328125 9.65625 C-3.63023437 8.6559375 -3.62765625 7.655625 -3.625 6.625 C-3.62757813 5.6246875 -3.63015625 4.624375 -3.6328125 3.59375 C-3.45286995 0.24893545 -3.34848919 0.16742446 0 0 Z " fill="#C4C4C4" transform="translate(346.5,206.875)"/>
<path d="M0 0 C2.3125 1 2.3125 1 4 2 C4 2.99 4 3.98 4 5 C3.01 5 2.02 5 1 5 C1 6.32 1 7.64 1 9 C-2.96 9 -6.92 9 -11 9 C-9.68 7.35 -8.36 5.7 -7 4 C-7.66 4 -8.32 4 -9 4 C-9 3.34 -9 2.68 -9 2 C-5.86269264 0.1408549 -3.6368085 -0.36368085 0 0 Z " fill="#D6D6D6" transform="translate(496,229)"/>
<path d="M0 0 C0.66 0 1.32 0 2 0 C2 1.32 2 2.64 2 4 C2.99 4 3.98 4 5 4 C5.97299156 8.85729645 6.12038805 13.4500625 6.0625 18.375 C6.05798828 19.11105469 6.05347656 19.84710938 6.04882812 20.60546875 C6.03715142 22.40368158 6.01922011 24.20185197 6 26 C5.01 26.33 4.02 26.66 3 27 C3.33 20.07 3.66 13.14 4 6 C-1.28 6 -6.56 6 -12 6 C-7.68356657 1.68356657 -6.70956472 1.53863818 -1 1 C-0.67 0.67 -0.34 0.34 0 0 Z " fill="#DBCDD0" transform="translate(302,198)"/>
<path d="M0 0 C0.70125 0.00515625 1.4025 0.0103125 2.125 0.015625 C2.82625 0.01046875 3.5275 0.0053125 4.25 0 C6.125 0.265625 6.125 0.265625 8.125 2.265625 C7.795 3.255625 7.465 4.245625 7.125 5.265625 C6.733125 4.75 6.34125 4.234375 5.9375 3.703125 C5.0403125 2.9915625 5.0403125 2.9915625 4.125 2.265625 C1.47033951 2.49606364 1.47033951 2.49606364 -0.875 3.265625 C-0.875 4.255625 -0.875 5.245625 -0.875 6.265625 C-0.32070312 6.47058594 0.23359375 6.67554688 0.8046875 6.88671875 C1.89136719 7.29083984 1.89136719 7.29083984 3 7.703125 C4.07894531 8.10337891 4.07894531 8.10337891 5.1796875 8.51171875 C7.125 9.265625 7.125 9.265625 9.125 10.265625 C8.8125 13.140625 8.8125 13.140625 8.125 16.265625 C4.63375983 18.59311845 3.23277749 18.76861816 -0.875 18.265625 C-3.25 16.265625 -3.25 16.265625 -4.875 14.265625 C-3.885 14.265625 -2.895 14.265625 -1.875 14.265625 C-1.545 14.595625 -1.215 14.925625 -0.875 15.265625 C1.79558851 15.40677661 4.44932238 15.30809607 7.125 15.265625 C6.97842916 13.29948233 6.97842916 13.29948233 6.125 11.265625 C4.04465706 10.1281037 4.04465706 10.1281037 1.5625 9.515625 C0.73621094 9.27328125 -0.09007812 9.0309375 -0.94140625 8.78125 C-1.57949219 8.61109375 -2.21757812 8.4409375 -2.875 8.265625 C-3.5 5.390625 -3.5 5.390625 -3.875 2.265625 C-1.875 0.265625 -1.875 0.265625 0 0 Z " fill="#878787" transform="translate(236.875,347.734375)"/>
<path d="M0 0 C1.21816406 0.03480469 1.21816406 0.03480469 2.4609375 0.0703125 C3.68683594 0.09738281 3.68683594 0.09738281 4.9375 0.125 C5.87722656 0.15980469 5.87722656 0.15980469 6.8359375 0.1953125 C7.4959375 1.8453125 8.1559375 3.4953125 8.8359375 5.1953125 C8.1759375 5.1953125 7.5159375 5.1953125 6.8359375 5.1953125 C6.4028125 4.6796875 5.9696875 4.1640625 5.5234375 3.6328125 C4.9665625 3.1584375 4.4096875 2.6840625 3.8359375 2.1953125 C1.18127701 2.42575114 1.18127701 2.42575114 -1.1640625 3.1953125 C-1.4940625 4.1853125 -1.8240625 5.1753125 -2.1640625 6.1953125 C-1.09865234 6.50275391 -1.09865234 6.50275391 -0.01171875 6.81640625 C1.36693359 7.22052734 1.36693359 7.22052734 2.7734375 7.6328125 C3.68996094 7.89964844 4.60648437 8.16648437 5.55078125 8.44140625 C7.8359375 9.1953125 7.8359375 9.1953125 8.8359375 10.1953125 C9.1484375 12.5703125 9.1484375 12.5703125 8.8359375 15.1953125 C6.56326907 17.7302119 5.15918874 18.15573072 1.7734375 18.5703125 C-1.1640625 18.1953125 -1.1640625 18.1953125 -3.0390625 16.8203125 C-4.1640625 15.1953125 -4.1640625 15.1953125 -4.1640625 13.1953125 C-3.3596875 13.6903125 -3.3596875 13.6903125 -2.5390625 14.1953125 C0.3750436 15.42230454 2.70461458 15.33764536 5.8359375 15.1953125 C5.8359375 13.8753125 5.8359375 12.5553125 5.8359375 11.1953125 C5.19785156 10.96457031 4.55976563 10.73382813 3.90234375 10.49609375 C-2.88226282 7.81823812 -2.88226282 7.81823812 -4.3515625 4.5703125 C-4.09897882 1.37091922 -3.24296437 0.29268632 0 0 Z " fill="#7D7D7D" transform="translate(452.1640625,347.8046875)"/>
<path d="M0 0 C11.25 0 11.25 0 15 2 C14.67 2.66 14.34 3.32 14 4 C12.35 3.67 10.7 3.34 9 3 C9 3.99 9 4.98 9 6 C7.35 6 5.7 6 4 6 C4 5.34 4 4.68 4 4 C3.01 3.67 2.02 3.34 1 3 C1 12.57 1 22.14 1 32 C0.67 32 0.34 32 0 32 C0 21.44 0 10.88 0 0 Z " fill="#AFAEAF" transform="translate(338,294)"/>
<path d="M0 0 C0.66 0.33 1.32 0.66 2 1 C1.01 1.66 0.02 2.32 -1 3 C-0.67 2.01 -0.34 1.02 0 0 Z M-1 3 C0.17426264 5.34852528 0.11508173 6.73774065 0.09765625 9.3515625 C0.09443359 10.20234375 0.09121094 11.053125 0.08789062 11.9296875 C0.07951172 12.81914062 0.07113281 13.70859375 0.0625 14.625 C0.05798828 15.5221875 0.05347656 16.419375 0.04882812 17.34375 C0.03702591 19.56256648 0.02056155 21.78125018 0 24 C-0.99 23.67 -1.98 23.34 -3 23 C-3.89604368 16.95170514 -4.11269443 11.1105424 -4 5 C-4.99 4.67 -5.98 4.34 -7 4 C-5 3 -5 3 -1 3 Z " fill="#ACACAC" transform="translate(358,342)"/>
<path d="M0 0 C1.86916794 1.86916794 1.21688008 4.87444574 1.25 7.375 C1.28867187 9.11910156 1.28867187 9.11910156 1.328125 10.8984375 C1 14 1 14 -0.359375 15.88671875 C-2.73701348 17.50011629 -4.19491448 17.49088997 -7 17 C-9.80561141 14.06014881 -10.41137378 11.95680292 -10.375 7.9375 C-10.38273437 7.08027344 -10.39046875 6.22304687 -10.3984375 5.33984375 C-10 3 -10 3 -8.703125 1.20703125 C-5.93386984 -0.75558307 -3.27408237 -0.24252462 0 0 Z M-8 3 C-8.09851171 4.83115883 -8.12972629 6.66619933 -8.125 8.5 C-8.12757813 9.5003125 -8.13015625 10.500625 -8.1328125 11.53125 C-8.27870382 13.94399622 -8.27870382 13.94399622 -7 15 C-4.5 15.16666667 -4.5 15.16666667 -2 15 C-0.72129618 13.94399622 -0.72129618 13.94399622 -0.8671875 11.53125 C-0.86976563 10.5309375 -0.87234375 9.530625 -0.875 8.5 C-0.87242187 7.4996875 -0.86984375 6.499375 -0.8671875 5.46875 C-0.72129618 3.05600378 -0.72129618 3.05600378 -2 2 C-5.28894893 1.59371033 -5.28894893 1.59371033 -8 3 Z " fill="#7B7B7B" transform="translate(351,205)"/>
<path d="M0 0 C3.3 0 6.6 0 10 0 C10 0.66 10 1.32 10 2 C7.36 2 4.72 2 2 2 C2 3.65 2 5.3 2 7 C4.31 7 6.62 7 9 7 C9 7.66 9 8.32 9 9 C6.69 9 4.38 9 2 9 C2 10.98 2 12.96 2 15 C4.64 15 7.28 15 10 15 C10 15.66 10 16.32 10 17 C6.7 17 3.4 17 0 17 C0 11.39 0 5.78 0 0 Z " fill="#808080" transform="translate(228,205)"/>
<path d="M0 0 C-0.309375 0.53625 -0.61875 1.0725 -0.9375 1.625 C-2.17827439 4.3984957 -2.5909675 7.00042837 -3 10 C-2.01 9.67 -1.02 9.34 0 9 C0.73323796 6.98491642 0.73323796 6.98491642 1 5 C1.66 5 2.32 5 3 5 C3.33 3.35 3.66 1.7 4 0 C5.65 0 7.3 0 9 0 C9.33 0.66 9.66 1.32 10 2 C8.8553125 2.5259375 8.8553125 2.5259375 7.6875 3.0625 C4.68074147 4.87214632 4.68074147 4.87214632 3.5 8.625 C2 12 2 12 -0.5 13.125 C-3 13 -3 13 -4.875 12 C-6.67118129 8.80678882 -5.86298496 6.45193985 -5 3 C-2.77419355 0 -2.77419355 0 0 0 Z " fill="#D1D1D1" transform="translate(410,17)"/>
<path d="M0 0 C3.125 0.1875 3.125 0.1875 6.125 2.1875 C5.795 3.1775 5.465 4.1675 5.125 5.1875 C4.465 4.5275 3.805 3.8675 3.125 3.1875 C1.13678687 2.78985737 -0.86444339 2.44974651 -2.875 2.1875 C-2.68543068 4.16238225 -2.68543068 4.16238225 -1.875 6.1875 C-0.04752029 7.13771766 -0.04752029 7.13771766 2.125 7.625 C4.3125 8.328125 4.3125 8.328125 6.125 9.1875 C7.125 11.875 7.125 11.875 7.125 14.1875 C5.5625 15.75 5.5625 15.75 3.125 17.1875 C-0.5 17.125 -0.5 17.125 -3.875 16.1875 C-5.3125 14.125 -5.3125 14.125 -5.875 12.1875 C-5.070625 12.6825 -5.070625 12.6825 -4.25 13.1875 C-1.3358939 14.41449204 0.99367708 14.32983286 4.125 14.1875 C4.125 13.1975 4.125 12.2075 4.125 11.1875 C3.01125 10.73375 1.8975 10.28 0.75 9.8125 C-2.875 8.1875 -2.875 8.1875 -4.875 6.1875 C-4.15346072 0.27087787 -4.15346072 0.27087787 0 0 Z " fill="#848484" transform="translate(177.875,204.8125)"/>
<path d="M0 0 C3.0625 0.1875 3.0625 0.1875 5.0625 2.1875 C5.5625 4.9375 5.5625 4.9375 5.0625 8.1875 C3.25149364 10.51443259 1.30028636 12.22943693 -0.9375 14.1875 C1.3725 14.5175 3.6825 14.8475 6.0625 15.1875 C6.0625 15.8475 6.0625 16.5075 6.0625 17.1875 C2.1025 17.5175 -1.8575 17.8475 -5.9375 18.1875 C-4.61763908 12.90805633 -2.38014921 11.14926614 2.0625 8.1875 C2.31280977 5.60369823 2.31280977 5.60369823 2.0625 3.1875 C0.7425 3.1875 -0.5775 3.1875 -1.9375 3.1875 C-2.2675 3.8475 -2.5975 4.5075 -2.9375 5.1875 C-3.5975 5.1875 -4.2575 5.1875 -4.9375 5.1875 C-3.82120474 0.24390669 -3.82120474 0.24390669 0 0 Z " fill="#7B7B7B" transform="translate(360.9375,204.8125)"/>
<path d="M0 0 C-0.33 0.66 -0.66 1.32 -1 2 C-1.66 2 -2.32 2 -3 2 C-3 6.29 -3 10.58 -3 15 C-5.52560108 12.47439892 -7.25901303 10.26951335 -9.1875 7.3125 C-9.71730469 6.50425781 -10.24710938 5.69601563 -10.79296875 4.86328125 C-11.19128906 4.24839844 -11.58960938 3.63351563 -12 3 C-7.78372195 0.18914797 -4.97048208 -0.11045516 0 0 Z " fill="#CECECE" transform="translate(208,203)"/>
<path d="M0 0 C0.66 0.33 1.32 0.66 2 1 C2 7.27 2 13.54 2 20 C1.34 19.34 0.68 18.68 0 18 C-0.99 17.67 -1.98 17.34 -3 17 C-3 14.36 -3 11.72 -3 9 C-4.32 8.67 -5.64 8.34 -7 8 C-5.02 8 -3.04 8 -1 8 C-0.67 6.68 -0.34 5.36 0 4 C-1.32 4.33 -2.64 4.66 -4 5 C-4 4.01 -4 3.02 -4 2 C-2.68 2 -1.36 2 0 2 C0 1.34 0 0.68 0 0 Z " fill="#CACACA" transform="translate(324,267)"/>
<path d="M0 0 C2.01822917 0.06510417 4.03645833 0.13020833 6.0546875 0.1953125 C4.0546875 2.1953125 4.0546875 2.1953125 1.4296875 2.3203125 C0.6459375 2.2790625 -0.1378125 2.2378125 -0.9453125 2.1953125 C-0.9453125 3.8453125 -0.9453125 5.4953125 -0.9453125 7.1953125 C-0.0171875 7.4634375 0.9109375 7.7315625 1.8671875 8.0078125 C6.5063004 9.73610946 6.5063004 9.73610946 8.0546875 12.1953125 C7.7421875 14.8828125 7.7421875 14.8828125 7.0546875 17.1953125 C6.0646875 17.5253125 5.0746875 17.8553125 4.0546875 18.1953125 C3.9309375 17.4528125 3.8071875 16.7103125 3.6796875 15.9453125 C3.07554389 13.28708062 2.59896447 11.43451411 1.0546875 9.1953125 C-1.48301253 7.91276606 -1.48301253 7.91276606 -3.9453125 7.1953125 C-4.0703125 4.8203125 -4.0703125 4.8203125 -3.9453125 2.1953125 C-1.9453125 0.1953125 -1.9453125 0.1953125 0 0 Z " fill="#CCCCCC" transform="translate(493.9453125,144.8046875)"/>
<path d="M0 0 C0 0.66 0 1.32 0 2 C0.66 2 1.32 2 2 2 C1.67 3.32 1.34 4.64 1 6 C0.01 5.67 -0.98 5.34 -2 5 C-2 5.66 -2 6.32 -2 7 C-7.75 5.125 -7.75 5.125 -10 4 C-10 2.35 -10 0.7 -10 -1 C-5.94568308 -2.15837626 -3.78187881 -1.83691257 0 0 Z " fill="#D6D6D6" transform="translate(503,148)"/>
<path d="M0 0 C0.66 0 1.32 0 2 0 C2 1.98 2 3.96 2 6 C2.969375 5.67 3.93875 5.34 4.9375 5 C9.29766837 3.73126248 13.49554566 3.81614472 18 4 C18 4.99 18 5.98 18 7 C12.91913204 7.84681133 8.15171623 8.09038099 3 8 C3 9.98 3 11.96 3 14 C2.34 13.67 1.68 13.34 1 13 C-0.29930238 8.71230214 -0.07516774 4.43489655 0 0 Z " fill="#CECECE" transform="translate(404,51)"/>
<path d="M0 0 C7.59 0 15.18 0 23 0 C23 0.66 23 1.32 23 2 C21.64068359 2.05607422 21.64068359 2.05607422 20.25390625 2.11328125 C12.95479731 2.50720141 6.8011093 3.30300838 0 6 C0 4.02 0 2.04 0 0 Z " fill="#E6E6E6" transform="translate(199,254)"/>
<path d="M0 0 C2 2 2 2 2.4375 4.8125 C1.86348785 8.99458853 0.14699608 10.31353993 -3 13 C-3.33 13.33 -3.66 13.66 -4 14 C-1.69 14.33 0.62 14.66 3 15 C3 15.66 3 16.32 3 17 C-0.96 17 -4.92 17 -9 17 C-9 16.01 -9 15.02 -9 14 C-7.04109119 12.60699818 -5.0360882 11.27754554 -3 10 C-1.12109566 8.62493901 -1.12109566 8.62493901 0 7 C0 5.68 0 4.36 0 3 C-1.65 3 -3.3 3 -5 3 C-5.33 3.66 -5.66 4.32 -6 5 C-6.66 5 -7.32 5 -8 5 C-7.625 3.0625 -7.625 3.0625 -7 1 C-4.48718205 -0.25640898 -2.78302919 -0.20872719 0 0 Z " fill="#838383" transform="translate(335,205)"/>
<path d="M0 0 C1.98 0 3.96 0 6 0 C7.76462683 3.08809695 8 4.23312136 8 8 C1.9453125 8.1953125 1.9453125 8.1953125 0 8 C-0.66 7.34 -1.32 6.68 -2 6 C-2.33 6 -2.66 6 -3 6 C-3 4.35 -3 2.7 -3 1 C-2.01 1.33 -1.02 1.66 0 2 C0 1.34 0 0.68 0 0 Z " fill="#E6E6E6" transform="translate(292,266)"/>
<path d="M0 0 C3.09998746 0.33214151 4.0545012 1.0545012 6.3125 3.3125 C8 6 8 6 7.75 8.3125 C7.5025 8.869375 7.255 9.42625 7 10 C1.375 10.25 1.375 10.25 -2 8 C-2.6875 5.375 -2.6875 5.375 -3 3 C-2.01 2.67 -1.02 2.34 0 2 C0 1.34 0 0.68 0 0 Z " fill="#D5D5D5" transform="translate(491,153)"/>
<path d="M0 0 C0 3.63 0 7.26 0 11 C-1.65 11 -3.3 11 -5 11 C-6.9375 8.75 -6.9375 8.75 -8 6 C-7.5 3.8125 -7.5 3.8125 -6 2 C-1.9 0 -1.9 0 0 0 Z " fill="#C7C7C7" transform="translate(571,142)"/>
<path d="M0 0 C1.125 3.75 1.125 3.75 0 6 C5.55053286 5.25640327 5.55053286 5.25640327 11 4 C10.67 6.31 10.34 8.62 10 11 C8.35425434 11.02688151 6.70838587 11.04634123 5.0625 11.0625 C4.14597656 11.07410156 3.22945313 11.08570313 2.28515625 11.09765625 C0 11 0 11 -1 10 C-1.13568319 6.33655389 -1.16461426 3.49384279 0 0 Z " fill="#272727" transform="translate(403,270)"/>
<path d="M0 0 C1.9375 0.6875 1.9375 0.6875 3.9375 1.6875 C3.9375 3.3375 3.9375 4.9875 3.9375 6.6875 C1.36536866 8.30699011 0.26080841 8.73158751 -2.8125 8.3125 C-3.92625 8.003125 -3.92625 8.003125 -5.0625 7.6875 C-5.25 4.8125 -5.25 4.8125 -5.0625 1.6875 C-2.0625 -0.3125 -2.0625 -0.3125 0 0 Z " fill="#D4D4D4" transform="translate(420.0625,401.3125)"/>
<path d="M0 0 C0.66 0 1.32 0 2 0 C3.35278115 1.98689731 4.68568305 3.98745218 6 6 C6.66 6.33 7.32 6.66 8 7 C8 7.66 8 8.32 8 9 C6.824375 9.0928125 6.824375 9.0928125 5.625 9.1875 C4.75875 9.455625 3.8925 9.72375 3 10 C1.62533375 12.47636012 1.62533375 12.47636012 1 15 C2.98 15 4.96 15 7 15 C7 15.66 7 16.32 7 17 C1.58860759 17.36075949 1.58860759 17.36075949 -0.9375 15.8125 C-2 14 -2 14 -1.875 11.4375 C-1 9 -1 9 2 7 C1.67 6.401875 1.34 5.80375 1 5.1875 C0 3 0 3 0 0 Z " fill="#D2D2D2" transform="translate(525,150)"/>
<path d="M0 0 C0.66 0 1.32 0 2 0 C2 1.32 2 2.64 2 4 C1.34 4 0.68 4 0 4 C-0.309375 4.94875 -0.61875 5.8975 -0.9375 6.875 C-2 10 -2 10 -3 12 C-1.02 12 0.96 12 3 12 C3 10.35 3 8.7 3 7 C3.33 7 3.66 7 4 7 C4 8.65 4 10.3 4 12 C4.66 12 5.32 12 6 12 C5.67 13.65 5.34 15.3 5 17 C4.01 17 3.02 17 2 17 C2 16.01 2 15.02 2 14 C-0.31 14 -2.62 14 -5 14 C-4.34580901 8.93001981 -2.1453591 4.58009223 0 0 Z " fill="#747474" transform="translate(374,205)"/>
<path d="M0 0 C1.65 0 3.3 0 5 0 C5.33 1.32 5.66 2.64 6 4 C6.66 4 7.32 4 8 4 C7.67 5.65 7.34 7.3 7 9 C5.68 9.33 4.36 9.66 3 10 C0.64551835 7.44931155 0.01672076 6.28982642 -0.1875 2.75 C-0.125625 1.8425 -0.06375 0.935 0 0 Z " fill="#DDDDDD" transform="translate(425,103)"/>
<path d="M0 0 C4.62 0 9.24 0 14 0 C14 0.66 14 1.32 14 2 C12.02 2 10.04 2 8 2 C8 6.95 8 11.9 8 17 C7.34 17 6.68 17 6 17 C6 12.05 6 7.1 6 2 C4.02 2 2.04 2 0 2 C0 1.34 0 0.68 0 0 Z " fill="#787878" transform="translate(282,348)"/>
<path d="M0 0 C0.66 0 1.32 0 2 0 C2 0.66 2 1.32 2 2 C2.99 2.33 3.98 2.66 5 3 C4.01 3.66 3.02 4.32 2 5 C1.49319956 7.09632445 1.49319956 7.09632445 1.4375 9.4375 C1.24585342 12.96263551 1.0552572 13.9171142 -1 17 C-3.16874252 16.49396008 -4.99967627 16.00016187 -7 15 C-7 14.01 -7 13.02 -7 12 C-4.83125748 12.50603992 -3.00032373 12.99983813 -1 14 C-1.01160156 13.07316406 -1.02320313 12.14632812 -1.03515625 11.19140625 C-1.04417969 9.99386719 -1.05320312 8.79632813 -1.0625 7.5625 C-1.07410156 6.36753906 -1.08570313 5.17257813 -1.09765625 3.94140625 C-1 1 -1 1 0 0 Z " fill="#C9C9C9" transform="translate(416,66)"/>
<path d="M0 0 C2.64 0 5.28 0 8 0 C8 2.31 8 4.62 8 7 C5.36 7 2.72 7 0 7 C0 4.69 0 2.38 0 0 Z " fill="#D1D1D1" transform="translate(497,382)"/>
<path d="M0 0 C0.66 0 1.32 0 2 0 C2 5.28 2 10.56 2 16 C4.97 16 7.94 16 11 16 C11 16.66 11 17.32 11 18 C7.04 18 3.08 18 -1 18 C-0.505 9.09 -0.505 9.09 0 0 Z " fill="#969696" transform="translate(333,348)"/>
<path d="M0 0 C2.5 0.25 2.5 0.25 4.5 2.25 C4.89764263 4.23821313 5.23775349 6.23944339 5.5 8.25 C1.045 7.26 1.045 7.26 -3.5 6.25 C-3.83 4.93 -4.16 3.61 -4.5 2.25 C-2.5 0.25 -2.5 0.25 0 0 Z " fill="#BEBEBE" transform="translate(164.5,348.75)"/>
<path d="M0 0 C4.62 0 9.24 0 14 0 C14 0.33 14 0.66 14 1 C12.02 1 10.04 1 8 1 C8 6.61 8 12.22 8 18 C7.34 18 6.68 18 6 18 C6 12.72 6 7.44 6 2 C4.02 2 2.04 2 0 2 C0 1.34 0 0.68 0 0 Z " fill="#7B7B7B" transform="translate(182,348)"/>
<path d="M0 0 C2.00720923 0.28674418 4.0085944 0.61866701 6 1 C6.33 1.99 6.66 2.98 7 4 C7.66 4.33 8.32 4.66 9 5 C8.01 5.99 7.02 6.98 6 8 C3.36 7.01 0.72 6.02 -2 5 C-1 1 -1 1 0 0 Z " fill="#C1C1C1" transform="translate(452,349)"/>
<path d="M0 0 C2.33294775 -0.04241723 4.66702567 -0.04092937 7 0 C8 1 8 1 8.125 3.5 C8 6 8 6 7 7 C4.66702567 7.04092937 2.33294775 7.04241723 0 7 C0 4.69 0 2.38 0 0 Z " fill="#CFCFCF" transform="translate(112,350)"/>
<path d="M0 0 C0.99 0 1.98 0 3 0 C2.67 3.3 2.34 6.6 2 10 C-1.8726592 10.9681648 -5.03611362 11.07622858 -9 11 C-8.67 10.01 -8.34 9.02 -8 8 C-6.15234375 7.26953125 -6.15234375 7.26953125 -3.9375 6.8125 C-2.83728516 6.57466797 -2.83728516 6.57466797 -1.71484375 6.33203125 C-1.14894531 6.22246094 -0.58304688 6.11289063 0 6 C0 4.02 0 2.04 0 0 Z " fill="#CBCBCB" transform="translate(551,148)"/>
<path d="M0 0 C0.99 0 1.98 0 3 0 C4.85776765 3.13498292 5.20140476 5.37471432 5 9 C3 7 3 7 2 4 C0.68 6.64 -0.64 9.28 -2 12 C0.31 12 2.62 12 5 12 C5 12.33 5 12.66 5 13 C2.36 13 -0.28 13 -3 13 C-3.33 14.32 -3.66 15.64 -4 17 C-5.3274855 13.01754349 -3.99907829 10.55210457 -2.5625 6.8125 C-2.19801758 5.83120117 -2.19801758 5.83120117 -1.82617188 4.83007812 C-1.2256707 3.21696714 -0.61390797 1.6080565 0 0 Z " fill="#8A8A8A" transform="translate(212,348)"/>
<path d="M0 0 C1.65 0 3.3 0 5 0 C5 0.99 5 1.98 5 3 C4.01 3.495 4.01 3.495 3 4 C2.5316735 6.58605332 2.5316735 6.58605332 2.375 9.5625 C2.30023438 10.57441406 2.22546875 11.58632812 2.1484375 12.62890625 C2.09945313 13.41136719 2.05046875 14.19382813 2 15 C2.99 15.33 3.98 15.66 5 16 C5 16.33 5 16.66 5 17 C3.35 17 1.7 17 0 17 C0 11.39 0 5.78 0 0 Z " fill="#951A39" transform="translate(290,205)"/>
<path d="M0 0 C2.4375 0.125 2.4375 0.125 5 1 C6.8125 3.0625 6.8125 3.0625 8 5 C7.34 5.66 6.68 6.32 6 7 C2.375 6.625 2.375 6.625 -1 6 C-1.625 4.125 -1.625 4.125 -2 2 C-1.34 1.34 -0.68 0.68 0 0 Z " fill="#D2D2D2" transform="translate(237,349)"/>
<path d="M0 0 C0.5625 1.9375 0.5625 1.9375 1 4 C0 5 0 5 -2.875 5.3125 C-6 5 -6 5 -7.875 3.125 C-9 1 -9 1 -9 -1 C-5.79937313 -2.60031344 -3.27728194 -1.03173691 0 0 Z " fill="#CDCDCD" transform="translate(182,215)"/>
<path d="M0 0 C2.875 -0.125 2.875 -0.125 6 0 C6.66 0.66 7.32 1.32 8 2 C8.99 2 9.98 2 11 2 C10.34 3.65 9.68 5.3 9 7 C6.03 6.01 3.06 5.02 0 4 C0 2.68 0 1.36 0 0 Z " fill="#CDCDCD" transform="translate(175,207)"/>
<path d="M0 0 C3.96 0 7.92 0 12 0 C12 1.98 12 3.96 12 6 C11.01 5.34 10.02 4.68 9 4 C8.67 5.32 8.34 6.64 8 8 C7.01 7.67 6.02 7.34 5 7 C5 5.68 5 4.36 5 3 C4.34 3 3.68 3 3 3 C3 2.34 3 1.68 3 1 C2.01 0.67 1.02 0.34 0 0 Z " fill="#0D0D0D" transform="translate(116,245)"/>
<path d="M0 0 C0.99 0.33 1.98 0.66 3 1 C1.02 3.97 -0.96 6.94 -3 10 C-1.35 10 0.3 10 2 10 C-0.5654594 12.5654594 -2.47686668 12.54046087 -6 13 C-6.71484375 10.76953125 -6.71484375 10.76953125 -7 8 C-5.56640625 5.76171875 -5.56640625 5.76171875 -3.5625 3.6875 C-2.57443359 2.64142578 -2.57443359 2.64142578 -1.56640625 1.57421875 C-1.04949219 1.05472656 -0.53257812 0.53523438 0 0 Z " fill="#CDCDCD" transform="translate(422,84)"/>
<path d="M0 0 C1.32 0 2.64 0 4 0 C4 3.63 4 7.26 4 11 C2.68 11.33 1.36 11.66 0 12 C0 8.04 0 4.08 0 0 Z " fill="#CFCFCF" transform="translate(190,206)"/>
<path d="M0 0 C0.33 0.99 0.66 1.98 1 3 C4.96 3 8.92 3 13 3 C13 3.33 13 3.66 13 4 C11.35 4 9.7 4 8 4 C8 4.66 8 5.32 8 6 C6.37536158 6.05395478 4.75021459 6.09277195 3.125 6.125 C2.22007812 6.14820313 1.31515625 6.17140625 0.3828125 6.1953125 C-2 6 -2 6 -4 4 C-2.68 2.68 -1.36 1.36 0 0 Z " fill="#BDBDBD" transform="translate(325,323)"/>
<path d="M0 0 C1.65 0.33 3.3 0.66 5 1 C5.38218767 2.65614657 5.71395102 4.32457024 6 6 C5 7 5 7 1.9375 7.0625 C0.968125 7.041875 -0.00125 7.02125 -1 7 C-1.33 6.34 -1.66 5.68 -2 5 C-1.0625 2.375 -1.0625 2.375 0 0 Z " fill="#D0D0D0" transform="translate(453,357)"/>
<path d="M0 0 C0.99 0 1.98 0 3 0 C2.67 1.98 2.34 3.96 2 6 C2.66 6.33 3.32 6.66 4 7 C0.7 7 -2.6 7 -6 7 C-5.34 5.02 -4.68 3.04 -4 1 C-3.01 1 -2.02 1 -1 1 C-0.67 0.67 -0.34 0.34 0 0 Z " fill="#B5B5B5" transform="translate(377,210)"/>
<path d="M0 0 C0.66 0.66 1.32 1.32 2 2 C-2.99296295 4.9445679 -7.33557626 5.63495936 -13 6 C-12.67 4.68 -12.34 3.36 -12 2 C-10.4221875 2.061875 -10.4221875 2.061875 -8.8125 2.125 C-5.25989827 2.00852125 -3.15133359 1.52791932 0 0 Z " fill="#E3E3E3" transform="translate(203,200)"/>
<path d="M0 0 C1.4540625 0.0309375 1.4540625 0.0309375 2.9375 0.0625 C3.040625 0.701875 3.14375 1.34125 3.25 2 C3.5903125 3.0209375 3.5903125 3.0209375 3.9375 4.0625 C4.9275 4.3925 5.9175 4.7225 6.9375 5.0625 C1.9875 5.3925 -2.9625 5.7225 -8.0625 6.0625 C-8.0625 5.4025 -8.0625 4.7425 -8.0625 4.0625 C-6.0825 4.0625 -4.1025 4.0625 -2.0625 4.0625 C-2.0625 3.4025 -2.0625 2.7425 -2.0625 2.0625 C-2.7225 1.7325 -3.3825 1.4025 -4.0625 1.0625 C-3.0625 0.0625 -3.0625 0.0625 0 0 Z " fill="#BCBCBC" transform="translate(289.0625,342.9375)"/>
<path d="M0 0 C1.65 0 3.3 0 5 0 C5.33 1.65 5.66 3.3 6 5 C5.01 5.66 4.02 6.32 3 7 C1.02 6.01 -0.96 5.02 -3 4 C-2.34 3.67 -1.68 3.34 -1 3 C-0.67 2.01 -0.34 1.02 0 0 Z " fill="#C9C9C9" transform="translate(330,207)"/>
<path d="M0 0 C4.62 0 9.24 0 14 0 C13 2 13 2 11.25 2.6875 C8.60760177 3.05449975 6.57327078 2.64331769 4 2 C4 3.65 4 5.3 4 7 C3.34 7 2.68 7 2 7 C2 5.35 2 3.7 2 2 C1.34 2 0.68 2 0 2 C0 1.34 0 0.68 0 0 Z " fill="#C4C4C4" transform="translate(438,334)"/>
<path d="M0 0 C0.66 0 1.32 0 2 0 C1.814375 0.86625 1.62875 1.7325 1.4375 2.625 C0.99332067 6.05152628 1.28045508 8.64212371 2 12 C0.68 11.01 -0.64 10.02 -2 9 C-3.32 9.99 -4.64 10.98 -6 12 C-4.79618552 9.50638429 -3.54571278 7.31856917 -2 5 C-2 4.01 -2 3.02 -2 2 C-1.34 1.34 -0.68 0.68 0 0 Z " fill="#D6D6D6" transform="translate(426,80)"/>
<path d="M0 0 C2.31 0 4.62 0 7 0 C7 2.31 7 4.62 7 7 C6.01 7.495 6.01 7.495 5 8 C5 6.68 5 5.36 5 4 C3.68 4.33 2.36 4.66 1 5 C0.67 3.35 0.34 1.7 0 0 Z " fill="#D0D0D0" transform="translate(467,380)"/>
<path d="M0 0 C0.99 0.33 1.98 0.66 3 1 C3 2.32 3 3.64 3 5 C0.29120665 6.35439668 -2.00933268 6.06501451 -5 6 C-5 4.68 -5 3.36 -5 2 C-3.35 2 -1.7 2 0 2 C0 1.34 0 0.68 0 0 Z " fill="#BEBEBE" transform="translate(166,358)"/>
<path d="M0 0 C0.66 0 1.32 0 2 0 C2 1.98 2 3.96 2 6 C4.475 6.99 4.475 6.99 7 8 C6.67 8.99 6.34 9.98 6 11 C4.35 11 2.7 11 1 11 C0.67 7.37 0.34 3.74 0 0 Z " fill="#D0D0D0" transform="translate(288,232)"/>
<path d="M0 0 C1.65 0 3.3 0 5 0 C5 0.99 5 1.98 5 3 C4.34 3.66 3.68 4.32 3 5 C2.54188325 6.97235333 2.54188325 6.97235333 2.375 9.125 C2.25125 10.40375 2.1275 11.6825 2 13 C1.67 13 1.34 13 1 13 C-0.125 7.25 -0.125 7.25 1 5 C0.34 5 -0.32 5 -1 5 C-0.67 3.35 -0.34 1.7 0 0 Z " fill="#CDCDCD" transform="translate(208,204)"/>
<path d="M0 0 C-0.33 0.99 -0.66 1.98 -1 3 C-1.86625 3.12375 -2.7325 3.2475 -3.625 3.375 C-6.89513853 3.98058121 -9.87256899 4.88306035 -13 6 C-12 3 -12 3 -10.0390625 1.796875 C-9.24242187 1.45140625 -8.44578125 1.1059375 -7.625 0.75 C-6.83351563 0.39421875 -6.04203125 0.0384375 -5.2265625 -0.328125 C-3 -1 -3 -1 0 0 Z " fill="#CECECE" transform="translate(417,36)"/>
<path d="M0 0 C0.33 0 0.66 0 1 0 C1 2.97 1 5.94 1 9 C3.64 9 6.28 9 9 9 C8.34 10.32 7.68 11.64 7 13 C5.68 13 4.36 13 3 13 C3 12.01 3 11.02 3 10 C1.68 9.67 0.36 9.34 -1 9 C-0.67 6.03 -0.34 3.06 0 0 Z " fill="#C6C6C6" transform="translate(233,279)"/>
<path d="M0 0 C0.66 0.33 1.32 0.66 2 1 C1.67 4.96 1.34 8.92 1 13 C0.34 13 -0.32 13 -1 13 C-0.67 10.03 -0.34 7.06 0 4 C-1.32 4.33 -2.64 4.66 -4 5 C-4 4.01 -4 3.02 -4 2 C-2.68 2 -1.36 2 0 2 C0 1.34 0 0.68 0 0 Z " fill="#C3C3C3" transform="translate(324,267)"/>
<path d="M0 0 C0.66 0 1.32 0 2 0 C2 0.66 2 1.32 2 2 C3.32 2 4.64 2 6 2 C6 2.99 6 3.98 6 5 C5.34 5 4.68 5 4 5 C3.67 5.99 3.34 6.98 3 8 C2.01 8 1.02 8 0 8 C0 5.36 0 2.72 0 0 Z " fill="#E1E1E1" transform="translate(460,133)"/>
<path d="M0 0 C1.98 0 3.96 0 6 0 C6 1.65 6 3.3 6 5 C2.25 6.125 2.25 6.125 0 5 C0 3.35 0 1.7 0 0 Z " fill="#E4E4E4" transform="translate(212,295)"/>
<path d="M0 0 C1.65 0 3.3 0 5 0 C5.66 1.65 6.32 3.3 7 5 C4.36 5 1.72 5 -1 5 C-0.67 3.35 -0.34 1.7 0 0 Z " fill="#F2F2F2" transform="translate(351,271)"/>
<path d="M0 0 C0.66 0.33 1.32 0.66 2 1 C2 3.64 2 6.28 2 9 C1.34 9 0.68 9 0 9 C0 9.66 0 10.32 0 11 C-1.65 11.33 -3.3 11.66 -5 12 C-5 11.34 -5 10.68 -5 10 C-3.68 9.67 -2.36 9.34 -1 9 C-0.67 6.03 -0.34 3.06 0 0 Z " fill="#CCCCCC" transform="translate(420,19)"/>
<path d="M0 0 C-1.375 1.5 -1.375 1.5 -3 3 C-3.66 3 -4.32 3 -5 3 C-5.33 3.99 -5.66 4.98 -6 6 C-8.0625 6.6875 -8.0625 6.6875 -10 7 C-10 6.34 -10 5.68 -10 5 C-9.01 5 -8.02 5 -7 5 C-7.66 4.67 -8.32 4.34 -9 4 C-9 3.01 -9 2.02 -9 1 C-3.375 -1.125 -3.375 -1.125 0 0 Z " fill="#D3D3D3" transform="translate(442,107)"/>
<path d="M0 0 C1.65 0 3.3 0 5 0 C5.33 0.66 5.66 1.32 6 2 C5.236875 2.4125 4.47375 2.825 3.6875 3.25 C1.0633358 4.95875809 -0.30321976 6.41017753 -2 9 C-2.33 7.68 -2.66 6.36 -3 5 C-2.34 5 -1.68 5 -1 5 C-0.67 3.35 -0.34 1.7 0 0 Z " fill="#CBCBCB" transform="translate(414,17)"/>
<path d="M0 0 C0.66 0.99 1.32 1.98 2 3 C-0.41669703 5.23079726 -1.75015327 5.96940652 -5.0625 6.375 C-8 6 -8 6 -9.875 4.625 C-11 3 -11 3 -11 1 C-10.195625 1.495 -10.195625 1.495 -9.375 2 C-6.4608939 3.22699204 -4.13132292 3.14233286 -1 3 C-0.67 2.01 -0.34 1.02 0 0 Z " fill="#878787" transform="translate(459,360)"/>
<path d="M0 0 C6.0546875 -0.1953125 6.0546875 -0.1953125 8 0 C10 2 10 2 10.25 5 C10 8 10 8 8 10 C7.01 9.67 6.02 9.34 5 9 C5.66 8.67 6.32 8.34 7 8 C7 6.35 7 4.7 7 3 C4.69 2.34 2.38 1.68 0 1 C0 0.67 0 0.34 0 0 Z " fill="#757575" transform="translate(112,348)"/>
<path d="M0 0 C0.66 0 1.32 0 2 0 C2.66 1.32 3.32 2.64 4 4 C3.01 4 2.02 4 1 4 C0.71125 5.258125 0.4225 6.51625 0.125 7.8125 C-0.57303539 10.8539399 -1.20446585 12.30669878 -3 15 C-2.855625 14.175 -2.71125 13.35 -2.5625 12.5 C-2.14311276 9.8904794 -1.7977811 7.31080971 -1.5 4.6875 C-1 1 -1 1 0 0 Z " fill="#BDBDBD" transform="translate(137,344)"/>
<path d="M0 0 C4.62 0 9.24 0 14 0 C11.5162463 2.4837537 10.43222478 2.32803116 7 2.5625 C3.36281225 2.77217523 3.36281225 2.77217523 0 4 C0 2.68 0 1.36 0 0 Z " fill="#EAEAEA" transform="translate(339,254)"/>
<path d="M0 0 C0 3.96 0 7.92 0 12 C-1.32 11.67 -2.64 11.34 -4 11 C-4 10.01 -4 9.02 -4 8 C-3.01 8 -2.02 8 -1 8 C-1 6.35 -1 4.7 -1 3 C-1.99 3 -2.98 3 -4 3 C-4 2.34 -4 1.68 -4 1 C-1 0 -1 0 0 0 Z " fill="#C5C5C5" transform="translate(228,208)"/>
<path d="M0 0 C2.5654594 2.5654594 2.54046087 4.47686668 3 8 C1.35 8 -0.3 8 -2 8 C-1.125 1.125 -1.125 1.125 0 0 Z " fill="#C8C8C8" transform="translate(377,351)"/>
<path d="M0 0 C0.66 0.33 1.32 0.66 2 1 C2.40729228 3.32156597 2.74438677 5.6568787 3 8 C1.35 8 -0.3 8 -2 8 C-1.125 2.25 -1.125 2.25 0 0 Z " fill="#D0D0D0" transform="translate(313,351)"/>
<path d="M0 0 C0.66 0.33 1.32 0.66 2 1 C2.40729228 3.32156597 2.74438677 5.6568787 3 8 C1.35 8 -0.3 8 -2 8 C-1.125 2.25 -1.125 2.25 0 0 Z " fill="#E2E2E2" transform="translate(213,351)"/>
<path d="M0 0 C0.33 0 0.66 0 1 0 C1 1.65 1 3.3 1 5 C1.66 5 2.32 5 3 5 C2.67 6.65 2.34 8.3 2 10 C1.01 10 0.02 10 -1 10 C-1 9.01 -1 8.02 -1 7 C-3.31 7 -5.62 7 -8 7 C-8 6.67 -8 6.34 -8 6 C-5.36 6 -2.72 6 0 6 C0 4.02 0 2.04 0 0 Z " fill="#868686" transform="translate(377,212)"/>
<path d="M0 0 C0.66 0.33 1.32 0.66 2 1 C2.40729228 3.32156597 2.74438677 5.6568787 3 8 C1.35 8 -0.3 8 -2 8 C-1.125 2.25 -1.125 2.25 0 0 Z " fill="#D5D5D5" transform="translate(429,351)"/>
<path d="M0 0 C1.32 0 2.64 0 4 0 C4.33 1.98 4.66 3.96 5 6 C2.69 6 0.38 6 -2 6 C-1.34 5.67 -0.68 5.34 0 5 C0 3.35 0 1.7 0 0 Z " fill="#D5D5D5" transform="translate(442,336)"/>
<path d="M0 0 C-0.99 0.33 -1.98 0.66 -3 1 C-3 1.99 -3 2.98 -3 4 C-3.33 4.66 -3.66 5.32 -4 6 C-5.32 6 -6.64 6 -8 6 C-8 4.35 -8 2.7 -8 1 C-4.93251126 -0.86240388 -3.40254489 -1.2151946 0 0 Z " fill="#DFDFDF" transform="translate(422,275)"/>
<path d="M0 0 C1.9451 2.91765 2.45276317 4.62537285 3 8 C2.01 8 1.02 8 0 8 C-0.33 6.68 -0.66 5.36 -1 4 C-3.64 4 -6.28 4 -9 4 C-9 3.67 -9 3.34 -9 3 C-6.03 3 -3.06 3 0 3 C0 2.01 0 1.02 0 0 Z " fill="#A6A6A6" transform="translate(382,358)"/>
<path d="M0 0 C0.33 0 0.66 0 1 0 C1 1.98 1 3.96 1 6 C3.64 6 6.28 6 9 6 C9 6.66 9 7.32 9 8 C5.7 8 2.4 8 -1 8 C-0.67 5.36 -0.34 2.72 0 0 Z " fill="#898989" transform="translate(229,214)"/>
<path d="M0 0 C0.99 0 1.98 0 3 0 C3 1.98 3 3.96 3 6 C3.99 6.33 4.98 6.66 6 7 C4.34385343 7.38218767 2.67542976 7.71395102 1 8 C0 7 0 7 -0.0625 3.4375 C-0.041875 2.303125 -0.02125 1.16875 0 0 Z " fill="#E5E5E5" transform="translate(265,360)"/>
<path d="M0 0 C2.5654594 2.5654594 2.54046087 4.47686668 3 8 C1.35 8 -0.3 8 -2 8 C-1.34 5.36 -0.68 2.72 0 0 Z " fill="#C8C8C8" transform="translate(139,351)"/>
<path d="M0 0 C1.32 0.33 2.64 0.66 4 1 C4 1.99 4 2.98 4 4 C3.01 4.33 2.02 4.66 1 5 C-0.20882096 7.00016466 -0.20882096 7.00016466 -1 9 C-2.0326802 6.21176345 -2.04509293 5.1322726 -1.0625 2.25 C-0.711875 1.5075 -0.36125 0.765 0 0 Z " fill="#838383" transform="translate(428,348)"/>
<path d="M0 0 C0.33 0 0.66 0 1 0 C1.36253776 5.43806647 1.36253776 5.43806647 -0.25 7.9375 C-2 9 -2 9 -4.1875 8.6875 C-4.785625 8.460625 -5.38375 8.23375 -6 8 C-6 7.34 -6 6.68 -6 6 C-5.38125 5.938125 -4.7625 5.87625 -4.125 5.8125 C-1.72238859 5.171081 -1.72238859 5.171081 -0.75 2.4375 C-0.5025 1.633125 -0.255 0.82875 0 0 Z " fill="#BCBCBC" transform="translate(402,293)"/>
<path d="M0 0 C0.99 0.33 1.98 0.66 3 1 C2 4 2 4 -1.0625 5.6875 C-2.031875 6.120625 -3.00125 6.55375 -4 7 C-4 5.68 -4 4.36 -4 3 C-3.34 3 -2.68 3 -2 3 C-2 2.34 -2 1.68 -2 1 C-1.34 0.67 -0.68 0.34 0 0 Z " fill="#BFBFBF" transform="translate(364,277)"/>
<path d="M0 0 C0.66 0 1.32 0 2 0 C2 2.64 2 5.28 2 8 C2.66 8 3.32 8 4 8 C4.33 8.99 4.66 9.98 5 11 C1.125 10.125 1.125 10.125 0 9 C-0.07179964 7.48071962 -0.08392007 5.95832518 -0.0625 4.4375 C-0.05347656 3.61121094 -0.04445312 2.78492188 -0.03515625 1.93359375 C-0.02355469 1.29550781 -0.01195312 0.65742188 0 0 Z " fill="#D5D5D5" transform="translate(207,209)"/>
<path d="M0 0 C0.66 0 1.32 0 2 0 C2 0.99 2 1.98 2 3 C3.32 3 4.64 3 6 3 C6 3.99 6 4.98 6 6 C4.35 6 2.7 6 1 6 C0.34 4.35 -0.32 2.7 -1 1 C-0.67 0.67 -0.34 0.34 0 0 Z " fill="#C3C3C3" transform="translate(565,147)"/>
<path d="M0 0 C1.98 0 3.96 0 6 0 C5.01 2.31 4.02 4.62 3 7 C2.34 7 1.68 7 1 7 C0.67 4.69 0.34 2.38 0 0 Z " fill="#D4D4D4" transform="translate(538,399)"/>
<path d="M0 0 C0.33 0.99 0.66 1.98 1 3 C3.31 3 5.62 3 8 3 C8.33 2.34 8.66 1.68 9 1 C9 1.99 9 2.98 9 4 C6.03 4 3.06 4 0 4 C-0.66 5.32 -1.32 6.64 -2 8 C-2.20086443 4.28400809 -2.1519437 3.22791555 0 0 Z " fill="#747474" transform="translate(373,357)"/>
<path d="M0 0 C1.2065625 0.0309375 1.2065625 0.0309375 2.4375 0.0625 C2.7675 0.7225 3.0975 1.3825 3.4375 2.0625 C2.4475 2.3925 1.4575 2.7225 0.4375 3.0625 C-0.2225 2.7325 -0.8825 2.4025 -1.5625 2.0625 C-1.5625 3.3825 -1.5625 4.7025 -1.5625 6.0625 C-2.5525 5.7325 -3.5425 5.4025 -4.5625 5.0625 C-3.43829114 0.08386076 -3.43829114 0.08386076 0 0 Z " fill="#B2B2B2" transform="translate(164.5625,348.9375)"/>
<path d="M0 0 C-0.66 3.3 -1.32 6.6 -2 10 C-5 7 -5 7 -6 4 C-2.25 0 -2.25 0 0 0 Z " fill="#CDCDCD" transform="translate(380,303)"/>
<path d="M0 0 C1.65 0 3.3 0 5 0 C5 0.66 5 1.32 5 2 C5.99 2.33 6.98 2.66 8 3 C7.01 3 6.02 3 5 3 C4.67 3.99 4.34 4.98 4 6 C3.34 5.67 2.68 5.34 2 5 C2 4.01 2 3.02 2 2 C1.34 2 0.68 2 0 2 C0 1.34 0 0.68 0 0 Z " fill="#EEEEEE" transform="translate(493,299)"/>
<path d="M0 0 C0.33 0 0.66 0 1 0 C1.33 3.63 1.66 7.26 2 11 C1.01 11 0.02 11 -1 11 C-1.02688151 9.35425434 -1.04634123 7.70838587 -1.0625 6.0625 C-1.07410156 5.14597656 -1.08570313 4.22945312 -1.09765625 3.28515625 C-1 1 -1 1 0 0 Z " fill="#C5C5C5" transform="translate(316,244)"/>
<path d="M0 0 C2.31 0 4.62 0 7 0 C6.67 0.99 6.34 1.98 6 3 C4.02 3.33 2.04 3.66 0 4 C0 2.68 0 1.36 0 0 Z " fill="#0E0E0E" transform="translate(164,245)"/>
<path d="M0 0 C1.32 0 2.64 0 4 0 C4 1.32 4 2.64 4 4 C1.69 4 -0.62 4 -3 4 C-1.75 2 -1.75 2 0 0 Z " fill="#C0C0C0" transform="translate(88,248)"/>
<path d="M0 0 C1.32 0 2.64 0 4 0 C3.67 1.98 3.34 3.96 3 6 C2.01 6.33 1.02 6.66 0 7 C0 4.69 0 2.38 0 0 Z " fill="#C9C9C9" transform="translate(190,206)"/>
<path d="M0 0 C1.64666203 0.1135629 3.29236082 0.24117381 4.9375 0.375 C5.85402344 0.44460938 6.77054688 0.51421875 7.71484375 0.5859375 C8.84599609 0.79089844 8.84599609 0.79089844 10 1 C10.33 1.66 10.66 2.32 11 3 C8.36 2.67 5.72 2.34 3 2 C3 2.66 3 3.32 3 4 C2.01 3.67 1.02 3.34 0 3 C0 2.01 0 1.02 0 0 Z " fill="#CDCDCD" transform="translate(536,292)"/>
<path d="M0 0 C-0.33 0.99 -0.66 1.98 -1 3 C-2.98 3.33 -4.96 3.66 -7 4 C-7 3.01 -7 2.02 -7 1 C-4 0 -4 0 0 0 Z " fill="#EDEDED" transform="translate(484,267)"/>
<path d="M0 0 C2.97 0.33 5.94 0.66 9 1 C8.67 1.99 8.34 2.98 8 4 C6.68 4 5.36 4 4 4 C4 3.01 4 2.02 4 1 C2.68 0.67 1.36 0.34 0 0 Z " fill="#D6D6D6" transform="translate(130,213)"/>
<path d="M0 0 C1.32 0 2.64 0 4 0 C4.66 1.32 5.32 2.64 6 4 C5.34 4.66 4.68 5.32 4 6 C4 5.34 4 4.68 4 4 C2.68 4.33 1.36 4.66 0 5 C0 3.35 0 1.7 0 0 Z " fill="#B7B7B7" transform="translate(366,208)"/>
<path d="M0 0 C1.32 0.33 2.64 0.66 4 1 C3.67 1.33 3.34 1.66 3 2 C5.97 2.495 5.97 2.495 9 3 C9 3.33 9 3.66 9 4 C5.37 4 1.74 4 -2 4 C-1.34 2.68 -0.68 1.36 0 0 Z " fill="#C9CFC6" transform="translate(264,200)"/>
<path d="M0 0 C1.98 0 3.96 0 6 0 C6 0.66 6 1.32 6 2 C2.77208445 4.1519437 1.71599191 4.20086443 -2 4 C-1.34 2.68 -0.68 1.36 0 0 Z " fill="#E4E4E4" transform="translate(430,418)"/>
<path d="M0 0 C0 0.99 0 1.98 0 3 C-2.64 3 -5.28 3 -8 3 C-8 2.34 -8 1.68 -8 1 C-5.07175348 0.02391783 -3.04386724 -0.08226668 0 0 Z " fill="#CACACA" transform="translate(118,345)"/>
<path d="M0 0 C2.875 -0.125 2.875 -0.125 6 0 C6.66 0.66 7.32 1.32 8 2 C5.29120665 3.35439668 2.99066732 3.06501451 0 3 C0 2.01 0 1.02 0 0 Z " fill="#C4C4C4" transform="translate(424,331)"/>
<path d="M0 0 C1.32 0 2.64 0 4 0 C4 1.65 4 3.3 4 5 C2.68 5 1.36 5 0 5 C0 3.35 0 1.7 0 0 Z " fill="#181818" transform="translate(216,320)"/>
<path d="M0 0 C1.32 0 2.64 0 4 0 C3.67 1.32 3.34 2.64 3 4 C1.35 4 -0.3 4 -2 4 C-1.34 2.68 -0.68 1.36 0 0 Z " fill="#E7E7E7" transform="translate(132,225)"/>
<path d="M0 0 C2.64 0.33 5.28 0.66 8 1 C8 1.99 8 2.98 8 4 C5.69 3.67 3.38 3.34 1 3 C0.67 2.01 0.34 1.02 0 0 Z " fill="#CBCBCB" transform="translate(508,148)"/>
<path d="M0 0 C0.99 0 1.98 0 3 0 C3 2.64 3 5.28 3 8 C2.67 7.34 2.34 6.68 2 6 C1.34 6 0.68 6 0 6 C0 4.02 0 2.04 0 0 Z " fill="#D5D5D5" transform="translate(457,134)"/>
<path d="M0 0 C2 2 2 2 2 5 C0.35 5.66 -1.3 6.32 -3 7 C-1.125 1.125 -1.125 1.125 0 0 Z " fill="#C9C9C9" transform="translate(322,360)"/>
<path d="M0 0 C2.475 0.495 2.475 0.495 5 1 C4.01 1.66 3.02 2.32 2 3 C2.33 3.99 2.66 4.98 3 6 C2.01 6.33 1.02 6.66 0 7 C0 4.69 0 2.38 0 0 Z " fill="#C8C8C8" transform="translate(452,307)"/>
<path d="M0 0 C1.134375 0.020625 2.26875 0.04125 3.4375 0.0625 C3.4375 0.7225 3.4375 1.3825 3.4375 2.0625 C1.1275 2.7225 -1.1825 3.3825 -3.5625 4.0625 C-3.8925 3.0725 -4.2225 2.0825 -4.5625 1.0625 C-3.5625 0.0625 -3.5625 0.0625 0 0 Z " fill="#C9C9C9" transform="translate(555.5625,296.9375)"/>
<path d="M0 0 C-1.65 1.65 -3.3 3.3 -5 5 C-5.99 4.67 -6.98 4.34 -8 4 C-8 3.01 -8 2.02 -8 1 C-5.29120665 -0.35439668 -2.99066732 -0.06501451 0 0 Z " fill="#D0D0D0" transform="translate(508,261)"/>
<path d="M0 0 C5.75 1.75 5.75 1.75 8 4 C5.69 4 3.38 4 1 4 C0.67 2.68 0.34 1.36 0 0 Z " fill="#ECECEC" transform="translate(496,214)"/>
<path d="M0 0 C5.625 -0.25 5.625 -0.25 9 2 C8.67 2.99 8.34 3.98 8 5 C7.34 4.34 6.68 3.68 6 3 C4.01643517 2.28591666 2.01684563 1.61382258 0 1 C0 0.67 0 0.34 0 0 Z " fill="#949494" transform="translate(175,205)"/>
<path d="M0 0 C0.99 0 1.98 0 3 0 C3 1.65 3 3.3 3 5 C1.68 5 0.36 5 -1 5 C-0.67 3.35 -0.34 1.7 0 0 Z " fill="#D3D3D3" transform="translate(568,145)"/>
<path d="M0 0 C0.66 0 1.32 0 2 0 C2.66 1.98 3.32 3.96 4 6 C2.68 6.33 1.36 6.66 0 7 C0 4.69 0 2.38 0 0 Z " fill="#B7B7B7" transform="translate(404,304)"/>
<path d="M0 0 C1.98 0 3.96 0 6 0 C6 0.99 6 1.98 6 3 C4.02 3 2.04 3 0 3 C0 2.01 0 1.02 0 0 Z " fill="#1A1A1A" transform="translate(402,285)"/>
<path d="M0 0 C0.33 0.66 0.66 1.32 1 2 C-0.4375 4.625 -0.4375 4.625 -2 7 C-3.32 6.67 -4.64 6.34 -6 6 C-4.02 4.02 -2.04 2.04 0 0 Z " fill="#B8B8B8" transform="translate(365,213)"/>
<path d="M0 0 C2 2 2 2 2 5 C0.02 5 -1.96 5 -4 5 C-2.68 3.35 -1.36 1.7 0 0 Z " fill="#E4E4E4" transform="translate(424,88)"/>
<path d="M0 0 C1.32 0.66 2.64 1.32 4 2 C4 2.66 4 3.32 4 4 C2.68 4 1.36 4 0 4 C-0.33 4.66 -0.66 5.32 -1 6 C-0.67 4.02 -0.34 2.04 0 0 Z " fill="#F1F1F1" transform="translate(352,278)"/>
<path d="M0 0 C0.66 0.33 1.32 0.66 2 1 C-0.25 3.0625 -0.25 3.0625 -3 5 C-5.3125 4.75 -5.3125 4.75 -7 4 C-1.7265625 0.77734375 -1.7265625 0.77734375 0 0 Z " fill="#282828" transform="translate(424,246)"/>
<path d="M0 0 C0.66 0.33 1.32 0.66 2 1 C1.67 2.32 1.34 3.64 1 5 C-0.32 4.67 -1.64 4.34 -3 4 C-2.67 3.01 -2.34 2.02 -2 1 C-1.34 0.67 -0.68 0.34 0 0 Z " fill="#D0D0D0" transform="translate(287,226)"/>
<path d="M0 0 C1.37562854 1.28965176 2.70766393 2.62689293 4 4 C4 4.66 4 5.32 4 6 C2.68 6.33 1.36 6.66 0 7 C0 4.69 0 2.38 0 0 Z " fill="#BEBEBE" transform="translate(196,209)"/>
<path d="M0 0 C1.98 0 3.96 0 6 0 C5.67 0.99 5.34 1.98 5 3 C3.35 3 1.7 3 0 3 C0 2.01 0 1.02 0 0 Z " fill="#E3E3E3" transform="translate(181,203)"/>
<path d="M0 0 C1.67542976 0.28604898 3.34385343 0.61781233 5 1 C3.02 1.99 3.02 1.99 1 3 C0.34 2.34 -0.32 1.68 -1 1 C-0.67 0.67 -0.34 0.34 0 0 Z M-1 3 C1.97 3.495 1.97 3.495 5 4 C5 4.33 5 4.66 5 5 C3.02 5 1.04 5 -1 5 C-1 4.34 -1 3.68 -1 3 Z " fill="#D3D3D3" transform="translate(7,169)"/>
<path d="M0 0 C2.64 0.33 5.28 0.66 8 1 C8 1.66 8 2.32 8 3 C5.125 3.1875 5.125 3.1875 2 3 C1.34 2.01 0.68 1.02 0 0 Z " fill="#CACACA" transform="translate(507,156)"/>
</svg>
